<svg width="123" height="45" viewBox="0 0 123 45" fill="none" xmlns="http://www.w3.org/2000/svg">
<g clip-path="url(#clip0_424_2586)">
<path d="M115.518 17.0286C117.892 19.4073 119.084 22.1962 112.681 20.5508C108.476 19.3955 104.426 17.7366 100.619 15.61C102.124 15.1277 103.708 14.9394 105.284 15.0551H105.313L106.196 15.1516C105.978 15.0551 105.732 14.9586 105.458 14.8621H105.424C99.4844 12.8308 81.3471 11.5087 74.3652 12.8163C68.8791 9.06725 57.2026 1.79591 43.6201 2.30736C41.9331 2.36898 40.2528 2.55281 38.5924 2.85742C27.9097 4.78743 22.2789 11.06 22.2789 11.06C16.8749 11.06 10.0957 8.64746 7.97754 5.93097C10.1681 7.63421 32.1268 1.17348 41.8203 0.353227C47.3016 -0.129277 50.8528 -0.404303 56.4547 1.53053C60.7634 3.01665 66.2881 5.82 74.8381 10.8718C79.2626 10.6064 83.4942 10.5823 87.4797 10.7319C107.6 11.4701 121.39 16.5219 121.39 16.5219C119.453 16.8759 117.487 17.0455 115.518 17.0286Z" fill="#1ECB15"/>
<path d="M56.1707 16.6671C42.593 22.6791 27.2591 17.8492 15.2688 14.6502C9.05902 13.0001 3.75148 11.7841 0.0410156 12.7202C0.272617 12.5706 5.77316 9.18823 18.5981 12.2666C24.4364 13.6707 30.3133 14.8722 36.0262 15.6924C43.119 16.7346 49.9705 17.1737 56.1707 16.6671Z" fill="#1ECB15"/>
<path d="M0.0117605 15.8563C2.3133 13.5499 8.69683 14.7851 11.8572 15.8563C6.28431 20.0734 -0.316342 18.5004 0.0117605 15.8563Z" fill="#1ECB15"/>
<path d="M81.5547 22.6208C87.5957 14.5485 99.9623 16.5026 107.938 23.4217C98.5968 19.0792 87.2483 19.5617 81.5547 22.6208Z" fill="#1ECB15"/>
<path d="M121.873 17.8828C123.287 23.8272 120.551 29.4629 117.81 33.7089C119.996 24.5027 119.441 20.5655 118.404 18.2012C119.565 18.1546 120.723 18.0483 121.873 17.8828Z" fill="#1ECB15"/>
<path d="M56.4353 1.52128C49.0095 0.073768 44.749 0.995348 38.5826 2.85299C27.9 4.783 22.2692 11.0556 22.2692 11.0556C16.8651 11.0556 10.0859 8.64304 7.96777 5.92654C10.1583 7.62978 32.1171 1.16905 41.8106 0.348791C47.2967 -0.124063 50.8334 -0.413561 56.4353 1.52128Z" fill="#1ECB15"/>
<path d="M115.518 17.029C117.892 19.4077 119.084 22.1966 112.681 20.5512C108.476 19.3959 104.426 17.737 100.619 15.6104C102.124 15.1281 103.708 14.9398 105.284 15.0555H105.313L106.196 15.152L105.458 14.8625H105.424C99.6459 12.7072 93.6101 11.3171 87.4707 10.7275C107.591 11.4657 121.381 16.5175 121.381 16.5175C119.447 16.8725 117.484 17.0437 115.518 17.029Z" fill="#1ECB15"/>
<path d="M56.1705 16.6673C42.5928 22.6793 27.2589 17.8494 15.2686 14.6504C22.9887 16.7107 23.0804 15.2101 36.0163 15.6975C43.1188 16.7348 49.9703 17.1739 56.1705 16.6673Z" fill="#1ECB15"/>
<path d="M10.7084 35.3922C8.0266 35.6193 5.82186 35.7328 4.09416 35.7328C2.94236 35.7328 2.16613 35.4717 1.76546 34.9495C1.36479 34.4273 1.31356 33.6099 1.61176 32.4974L3.07235 27.0483C3.39185 25.8563 3.89931 24.9935 4.59472 24.46C5.30492 23.915 6.27706 23.6426 7.51113 23.6426H13.8578L13.2188 26.0266H7.57731C6.87213 26.0266 6.42825 26.3672 6.24567 27.0483L4.78509 32.4974C4.7151 32.7585 4.7352 32.9685 4.84539 33.1275C4.97038 33.275 5.15628 33.3488 5.40309 33.3488C5.6499 33.3488 5.92022 33.3488 6.21405 33.3488C6.51092 33.3375 6.81954 33.3261 7.13992 33.3148C7.46029 33.3034 7.78067 33.2921 8.10104 33.2807C8.43317 33.2694 8.85649 33.2467 9.371 33.2126C9.89726 33.1785 10.5485 33.1388 11.3246 33.0934L10.7084 35.3922Z" fill="white"/>
<path d="M14.3221 35.5626H10.8389L18.8096 23.4854H22.3821L23.8784 35.5626H20.3952L20.1695 33.406H15.7039L14.3221 35.5626ZM17.1089 31.163H19.9669L19.6247 27.1085L17.1089 31.163Z" fill="white"/>
<path d="M28.0077 23.4854H35.5099C36.7602 23.4854 37.5913 23.7614 38.003 24.3135C38.4297 24.8541 38.4811 25.7283 38.1574 26.936L37.7412 28.4888C37.4853 29.4435 37.1197 30.1854 36.6445 30.7145C36.1812 31.2436 35.5691 31.5944 34.8084 31.7669L36.0238 35.5626H32.5406L31.4576 31.9394H28.9569L27.9857 35.5626H24.7705L28.0077 23.4854ZM34.9422 26.936C35.1272 26.2459 34.8624 25.9008 34.1479 25.9008H30.5755L29.6043 29.524H33.1768C33.8913 29.524 34.341 29.1789 34.526 28.4888L34.9422 26.936Z" fill="white"/>
<path d="M43.867 31.9394L49.1696 23.4854H52.6528L44.6821 35.5626H41.1096L39.6133 23.4854H43.0965L43.867 31.9394Z" fill="white"/>
<path d="M51.2849 35.5626H47.8018L55.7725 23.4854H59.345L60.8413 35.5626H57.3581L57.1324 33.406H52.6668L51.2849 35.5626ZM54.0718 31.163H56.9298L56.5876 27.1085L54.0718 31.163Z" fill="white"/>
<path d="M72.6294 35.5626H69.2356L66.8909 28.3163L64.9486 35.5626H61.7334L64.9706 23.4854H68.3644L70.7091 30.7317L72.6514 23.4854H75.8666L72.6294 35.5626Z" fill="white"/>
<path d="M0.253906 44.112V39.1992H3.19965V39.7269H0.848812V41.3869H2.97896V41.9146H0.848812V44.112H0.253906Z" fill="#E6E6E6"/>
<path d="M4.81366 39.1992V44.112H4.21875V39.1992H4.81366Z" fill="#E6E6E6"/>
<path d="M9.90153 39.1992V44.112H9.32581L6.64874 40.2547H6.60076V44.112H6.00586V39.1992H6.58157L9.26824 43.0661H9.31622V39.1992H9.90153Z" fill="#E6E6E6"/>
<path d="M12.6089 44.112H11.0928V39.1992H12.6761C13.1526 39.1992 13.5604 39.2975 13.8994 39.4942C14.2385 39.6894 14.4984 39.97 14.6791 40.3362C14.8598 40.7009 14.9501 41.1374 14.9501 41.646C14.9501 42.1577 14.859 42.5983 14.6767 42.9677C14.4944 43.3355 14.2289 43.6186 13.8803 43.8169C13.5316 44.0136 13.1078 44.112 12.6089 44.112ZM11.6877 43.5842H12.5705C12.9767 43.5842 13.3133 43.5059 13.5804 43.3491C13.8475 43.1924 14.0466 42.9693 14.1777 42.6799C14.3088 42.3904 14.3744 42.0458 14.3744 41.646C14.3744 41.2494 14.3096 40.9079 14.1801 40.6217C14.0506 40.3338 13.8571 40.1131 13.5996 39.9596C13.3421 39.8045 13.0215 39.7269 12.6377 39.7269H11.6877V43.5842Z" fill="#E6E6E6"/>
<path d="M17.2949 39.1992H17.9761L19.3386 41.4925H19.3962L20.7587 39.1992H21.44L19.6649 42.0874V44.112H19.07V42.0874L17.2949 39.1992Z" fill="#E6E6E6"/>
<path d="M26.1232 41.6554C26.1232 42.1735 26.0296 42.6213 25.8425 42.9987C25.6554 43.3761 25.3987 43.6672 25.0725 43.8719C24.7463 44.0766 24.3737 44.1789 23.9547 44.1789C23.5357 44.1789 23.1631 44.0766 22.8368 43.8719C22.5106 43.6672 22.2539 43.3761 22.0668 42.9987C21.8797 42.6213 21.7861 42.1735 21.7861 41.6554C21.7861 41.1372 21.8797 40.6895 22.0668 40.312C22.2539 39.9346 22.5106 39.6436 22.8368 39.4389C23.1631 39.2342 23.5357 39.1318 23.9547 39.1318C24.3737 39.1318 24.7463 39.2342 25.0725 39.4389C25.3987 39.6436 25.6554 39.9346 25.8425 40.312C26.0296 40.6895 26.1232 41.1372 26.1232 41.6554ZM25.5475 41.6554C25.5475 41.23 25.4763 40.871 25.334 40.5783C25.1932 40.2857 25.0021 40.0642 24.7607 39.9138C24.5208 39.7635 24.2521 39.6884 23.9547 39.6884C23.6572 39.6884 23.3877 39.7635 23.1463 39.9138C22.9064 40.0642 22.7153 40.2857 22.5729 40.5783C22.4322 40.871 22.3618 41.23 22.3618 41.6554C22.3618 42.0808 22.4322 42.4398 22.5729 42.7324C22.7153 43.0251 22.9064 43.2466 23.1463 43.3969C23.3877 43.5472 23.6572 43.6224 23.9547 43.6224C24.2521 43.6224 24.5208 43.5472 24.7607 43.3969C25.0021 43.2466 25.1932 43.0251 25.334 42.7324C25.4763 42.4398 25.5475 42.0808 25.5475 41.6554Z" fill="#E6E6E6"/>
<path d="M30.348 39.1992H30.9429V42.452C30.9429 42.7878 30.8637 43.0877 30.7054 43.3515C30.5487 43.6138 30.3272 43.8209 30.0409 43.9728C29.7547 44.1232 29.4189 44.1983 29.0334 44.1983C28.648 44.1983 28.3122 44.1232 28.0259 43.9728C27.7397 43.8209 27.5174 43.6138 27.3591 43.3515C27.2024 43.0877 27.124 42.7878 27.124 42.452V39.1992H27.7189V42.404C27.7189 42.6439 27.7717 42.8574 27.8772 43.0445C27.9828 43.23 28.1331 43.3763 28.3282 43.4835C28.5249 43.589 28.76 43.6418 29.0334 43.6418C29.3069 43.6418 29.542 43.589 29.7387 43.4835C29.9354 43.3763 30.0857 43.23 30.1897 43.0445C30.2952 42.8574 30.348 42.6439 30.348 42.404V39.1992Z" fill="#E6E6E6"/>
<path d="M32.1309 44.112V39.1992H33.7909C34.1747 39.1992 34.4897 39.2648 34.736 39.3959C34.9823 39.5254 35.1646 39.7037 35.2829 39.9308C35.4013 40.1579 35.4605 40.4162 35.4605 40.7056C35.4605 40.9951 35.4013 41.2518 35.2829 41.4757C35.1646 41.6996 34.9831 41.8755 34.7384 42.0034C34.4937 42.1297 34.1811 42.1929 33.8005 42.1929H32.4571V41.6556H33.7813C34.0436 41.6556 34.2547 41.6172 34.4146 41.5404C34.5761 41.4637 34.6928 41.3549 34.7648 41.2142C34.8384 41.0719 34.8752 40.9024 34.8752 40.7056C34.8752 40.5089 34.8384 40.337 34.7648 40.1899C34.6912 40.0428 34.5737 39.9292 34.4122 39.8493C34.2507 39.7677 34.0372 39.7269 33.7717 39.7269H32.7258V44.112H32.1309ZM34.4434 41.9051L35.6524 44.112H34.9615L33.7717 41.9051H34.4434Z" fill="#E6E6E6"/>
<path d="M39.8677 44.112H38.3516V39.1992H39.9348C40.4114 39.1992 40.8192 39.2975 41.1582 39.4942C41.4973 39.6894 41.7571 39.97 41.9379 40.3362C42.1186 40.7009 42.2089 41.1374 42.2089 41.646C42.2089 42.1577 42.1178 42.5983 41.9355 42.9677C41.7531 43.3355 41.4877 43.6186 41.139 43.8169C40.7904 44.0136 40.3666 44.112 39.8677 44.112ZM38.9465 43.5842H39.8293C40.2355 43.5842 40.5721 43.5059 40.8392 43.3491C41.1063 43.1924 41.3054 42.9693 41.4365 42.6799C41.5676 42.3904 41.6332 42.0458 41.6332 41.646C41.6332 41.2494 41.5684 40.9079 41.4389 40.6217C41.3094 40.3338 41.1159 40.1131 40.8584 39.9596C40.6009 39.8045 40.2803 39.7269 39.8965 39.7269H38.9465V43.5842Z" fill="#E6E6E6"/>
<path d="M43.2061 44.112V39.1992H44.8661C45.2499 39.1992 45.565 39.2648 45.8112 39.3959C46.0575 39.5254 46.2398 39.7037 46.3582 39.9308C46.4765 40.1579 46.5357 40.4162 46.5357 40.7056C46.5357 40.9951 46.4765 41.2518 46.3582 41.4757C46.2398 41.6996 46.0583 41.8755 45.8136 42.0034C45.569 42.1297 45.2563 42.1929 44.8757 42.1929H43.5324V41.6556H44.8565C45.1188 41.6556 45.3299 41.6172 45.4898 41.5404C45.6513 41.4637 45.7681 41.3549 45.84 41.2142C45.9136 41.0719 45.9504 40.9024 45.9504 40.7056C45.9504 40.5089 45.9136 40.337 45.84 40.1899C45.7665 40.0428 45.6489 39.9292 45.4874 39.8493C45.3259 39.7677 45.1124 39.7269 44.8469 39.7269H43.801V44.112H43.2061ZM45.5186 41.9051L46.7276 44.112H46.0367L44.8469 41.9051H45.5186Z" fill="#E6E6E6"/>
<path d="M47.5273 44.112V39.1992H50.4922V39.7269H48.1222V41.3869H50.3387V41.9146H48.1222V43.5842H50.5306V44.112H47.5273Z" fill="#E6E6E6"/>
<path d="M51.7663 44.112H51.1426L52.9465 39.1992H53.5606L55.3645 44.112H54.7408L53.2727 39.9764H53.2344L51.7663 44.112ZM51.9966 42.1929H54.5105V42.7206H51.9966V42.1929Z" fill="#E6E6E6"/>
<path d="M56.1299 39.1992H56.84L58.5095 43.2772H58.5671L60.2367 39.1992H60.9467V44.112H60.3902V40.3794H60.3422L58.807 44.112H58.2697L56.7344 40.3794H56.6865V44.112H56.1299V39.1992Z" fill="#E6E6E6"/>
<path d="M67.9918 40.7342H67.3969C67.3618 40.5631 67.3002 40.4128 67.2122 40.2833C67.1259 40.1537 67.0203 40.045 66.8956 39.957C66.7725 39.8675 66.6357 39.8003 66.4854 39.7555C66.3351 39.7107 66.1783 39.6884 66.0152 39.6884C65.7178 39.6884 65.4483 39.7635 65.2068 39.9138C64.9669 40.0642 64.7758 40.2857 64.6335 40.5783C64.4928 40.871 64.4224 41.23 64.4224 41.6554C64.4224 42.0808 64.4928 42.4398 64.6335 42.7324C64.7758 43.0251 64.9669 43.2466 65.2068 43.3969C65.4483 43.5472 65.7178 43.6224 66.0152 43.6224C66.1783 43.6224 66.3351 43.6 66.4854 43.5552C66.6357 43.5105 66.7725 43.4441 66.8956 43.3561C67.0203 43.2666 67.1259 43.157 67.2122 43.0275C67.3002 42.8964 67.3618 42.746 67.3969 42.5765H67.9918C67.9471 42.8276 67.8655 43.0523 67.7472 43.2506C67.6288 43.4489 67.4817 43.6176 67.3058 43.7567C67.1299 43.8943 66.9324 43.999 66.7133 44.071C66.4958 44.1429 66.2631 44.1789 66.0152 44.1789C65.5962 44.1789 65.2236 44.0766 64.8974 43.8719C64.5711 43.6672 64.3145 43.3761 64.1274 42.9987C63.9403 42.6213 63.8467 42.1735 63.8467 41.6554C63.8467 41.1372 63.9403 40.6895 64.1274 40.312C64.3145 39.9346 64.5711 39.6436 64.8974 39.4389C65.2236 39.2342 65.5962 39.1318 66.0152 39.1318C66.2631 39.1318 66.4958 39.1678 66.7133 39.2398C66.9324 39.3117 67.1299 39.4173 67.3058 39.5564C67.4817 39.6939 67.6288 39.8619 67.7472 40.0602C67.8655 40.2569 67.9471 40.4816 67.9918 40.7342Z" fill="#E6E6E6"/>
<path d="M69.1549 44.112H68.5312L70.3351 39.1992H70.9492L72.7531 44.112H72.1294L70.6613 39.9764H70.6229L69.1549 44.112ZM69.3852 42.1929H71.8991V42.7206H69.3852V42.1929Z" fill="#E6E6E6"/>
<path d="M73.5186 44.112V39.1992H75.1786C75.5624 39.1992 75.8774 39.2648 76.1236 39.3959C76.3699 39.5254 76.5523 39.7037 76.6707 39.9308C76.789 40.1579 76.8482 40.4162 76.8482 40.7056C76.8482 40.9951 76.789 41.2518 76.6707 41.4757C76.5523 41.6996 76.3708 41.8755 76.1261 42.0034C75.8814 42.1297 75.5688 42.1929 75.1882 42.1929H73.8449V41.6556H75.169C75.4313 41.6556 75.6424 41.6172 75.8023 41.5404C75.9638 41.4637 76.0805 41.3549 76.1525 41.2142C76.2261 41.0719 76.2629 40.9024 76.2629 40.7056C76.2629 40.5089 76.2261 40.337 76.1525 40.1899C76.0789 40.0428 75.9614 39.9292 75.7999 39.8493C75.6384 39.7677 75.4249 39.7269 75.1594 39.7269H74.1134V44.112H73.5186ZM75.8311 41.9051L77.0401 44.112H76.3492L75.1594 41.9051H75.8311Z" fill="#E6E6E6"/>
</g>
<defs>
<clipPath id="clip0_424_2586">
<rect width="123" height="45" fill="white"/>
</clipPath>
</defs>
</svg>
