<svg id="Layer_1" data-name="Layer 1" xmlns="http://www.w3.org/2000/svg" viewBox="0 0 384 384"><defs><style>.cls-1{fill:#fff;}</style></defs><path d="M966,732H953.25a9.06,9.06,0,0,0-1.67-.66C928.75,727,914,713.47,907.76,691.25c-5.86-21,2.2-43.07,19.73-56.28a5.74,5.74,0,0,0,2.56-5.28q-.15-20.81,0-41.62a5.92,5.92,0,0,0-2.4-5,114.4,114.4,0,0,1-10.57-10.55,6.24,6.24,0,0,0-5.3-2.58c-18.74.11-37.49.06-56.24.07-1.09,0-2.17.11-3.54.19v3.53c0,18.62,0,37.24,0,55.87a6.3,6.3,0,0,0,2.77,5.56c17.07,13.73,24.3,31.67,20.16,53.12-4.21,21.79-18,35.63-39.25,42-2.5.74-5.08,1.17-7.63,1.74H816a10.23,10.23,0,0,0-1.73-.62c-23.16-3.82-40.27-20-45.19-42.68-.34-1.57-.72-3.13-1.08-4.7V672c.25-1,.57-1.9.74-2.87,2.46-14,9.23-25.46,20.6-34a6.12,6.12,0,0,0,2.71-5.58q-.09-89.5,0-179a6.51,6.51,0,0,0-3-5.84,53.24,53.24,0,0,1-19.32-29.06c-.69-2.51-1.19-5.07-1.78-7.61V396c.24-.83.54-1.65.7-2.5,4.35-22.44,17.52-36.95,39.32-43.65,2.61-.79,5.32-1.24,8-1.85h12c.83.24,1.64.54,2.49.7,22.6,4.43,37.43,17.71,43.71,39.75,5.94,20.84-2.12,43.3-19.44,56.4a6.15,6.15,0,0,0-2.82,5.54c.11,18.61.06,37.23.07,55.85,0,1.2.11,2.39.17,3.76,20.59,0,40.82,0,61.05-.09,1.1,0,2.36-1,3.25-1.9,3.75-3.64,7.24-7.56,11.12-11.05,1.63-1.46,2.47-2.73,2.45-5-.1-13.37-.17-26.74,0-40.11a8.77,8.77,0,0,0-3.64-7.79C910,430.4,903,412.7,907.13,391.71c4.17-21.26,17.39-35.15,38.18-41.61,2.84-.88,5.79-1.41,8.69-2.1h12a11.24,11.24,0,0,0,1.74.61c23.17,4.18,38.63,17.58,44.42,40.22s-1.62,41.76-19.89,56.57a6.25,6.25,0,0,0-2.17,4.2q-.24,21.36,0,42.71a7.27,7.27,0,0,0,2.09,4.26c3.49,3.73,7.38,7.08,10.74,10.9,1.55,1.76,2.9,2.61,5.29,2.59,15.36-.12,30.73-.05,46.09-.06,9,0,13.68-4.71,13.69-13.6,0-15.36,0-30.72.06-46.09a5.9,5.9,0,0,0-2.55-5.28c-17.32-13.7-24.57-31.73-20.36-53.31,4.25-21.75,18-35.6,39.24-42,2.49-.74,5.08-1.17,7.62-1.75h12.75c.8.26,1.59.58,2.41.76q33.1,6.94,43,39.3c.78,2.59,1.24,5.29,1.85,7.94v12a13.25,13.25,0,0,0-.67,2.08,52.77,52.77,0,0,1-20.72,34.81,6.14,6.14,0,0,0-2.66,5.62c.09,15.49.13,31,0,46.48a76,76,0,0,1-1.11,13.41c-6.78,35.6-35.82,59.53-72.13,59.6-15.62,0-31.24-.06-46.85.1a7.79,7.79,0,0,0-4.56,2.25c-3.74,3.46-7.12,7.33-10.93,10.71a5.93,5.93,0,0,0-2.42,5c.1,13.87.12,27.74,0,41.61,0,2.55.91,4,2.82,5.53,16.6,13.47,23.82,30.93,20.35,52-3.28,20-15.23,33.5-33.91,41C975,729.91,970.41,730.76,966,732ZM880.71,546c13.13,0,26.25.11,39.37,0,6.16-.08,10.54,2.23,13.31,7.79a28,28,0,0,0,12.75,12.79c5.52,2.77,8,7.06,7.91,13.25-.14,18.74-.28,37.5.07,56.24.14,7.63-2.4,12.59-9.29,16.28C933,658.62,927.49,672.88,931,685.75A30.3,30.3,0,0,0,959.77,708a30,30,0,0,0,29.15-22.08A29.52,29.52,0,0,0,974.65,652c-6.32-3.39-8.83-8-8.74-15.06.26-19,.18-38,0-57-.05-6.16,2.25-10.53,7.81-13.3a28,28,0,0,0,12.79-12.75c2.76-5.53,7.06-8,13.24-7.9,18.38.14,36.75.08,55.12,0,28.06,0,49-21,49.08-49.09,0-17.5.29-35-.12-52.5-.18-7.92,2.44-13,9.56-16.9,11.94-6.54,17.13-20.87,13.29-33.94A29.8,29.8,0,0,0,1097.21,372c-13.15.34-25.12,9.79-28.28,22.33-3.39,13.46,2.42,27.34,14.63,33.82,6,3.19,8.6,7.65,8.51,14.43-.22,18.12,0,36.25-.09,54.37-.08,21.34-15.63,36.93-36.91,37-18.49.06-37-.06-55.49,0-6,0-10.24-2.37-13-7.76a28,28,0,0,0-12.73-12.81c-5.71-2.84-8-7.29-8-13.59.16-19.12.19-38.25,0-57.37-.07-6.61,2.37-11,8.26-14.2,9.93-5.3,15.22-13.92,15.73-25.13a29.95,29.95,0,1,0-44.28,25c6,3.22,8.52,7.71,8.44,14.48-.22,19.12-.18,38.24,0,57.37.05,6.35-2.46,10.72-8.1,13.52a26.68,26.68,0,0,0-12.28,12.22c-3,6-7.58,8.31-14.19,8.27-25.74-.17-51.49-.07-77.24-.07-9.69,0-14.24-4.53-14.25-14.18,0-25.12.21-50.25-.12-75.37-.11-7.89,2.4-13,9.52-16.93,11.91-6.52,17.17-20.67,13.48-33.53a30,30,0,0,0-57.87.37c-3.45,13.09,2.27,27.25,14.26,33.62,6.5,3.45,8.84,8.22,8.82,15.39q-.23,96.55,0,193.11c0,7.34-2.4,12.13-9,15.65-11.82,6.27-17.5,20.42-14.12,33.34a30.37,30.37,0,0,0,28.9,22.5A30,30,0,0,0,851,685.81a29.62,29.62,0,0,0-14.68-34.09c-5.87-3.15-8.38-7.53-8.34-14.16.17-25.87.07-51.74.08-77.61,0-9.43,4.58-13.94,14.08-14Z" transform="translate(-768 -348)"/><path class="cls-1" d="M966,732c4.41-1.24,9-2.09,13.2-3.79,18.68-7.48,30.63-21,33.91-41,3.47-21.11-3.75-38.57-20.35-52-1.91-1.55-2.85-3-2.82-5.53.13-13.87.11-27.74,0-41.61a5.93,5.93,0,0,1,2.42-5c3.81-3.38,7.19-7.25,10.93-10.71a7.79,7.79,0,0,1,4.56-2.25c15.61-.16,31.23-.08,46.85-.1,36.31-.07,65.35-24,72.13-59.6A76,76,0,0,0,1128,497c.13-15.49.09-31,0-46.48a6.14,6.14,0,0,1,2.66-5.62,52.77,52.77,0,0,0,20.72-34.81A13.25,13.25,0,0,1,1152,408V732Z" transform="translate(-768 -348)"/><path class="cls-1" d="M954,348c-2.9.69-5.85,1.22-8.69,2.1-20.79,6.46-34,20.35-38.18,41.61-4.12,21,2.86,38.69,19.31,52.38a8.77,8.77,0,0,1,3.64,7.79c-.2,13.37-.13,26.74,0,40.11,0,2.24-.82,3.51-2.45,5-3.88,3.49-7.37,7.41-11.12,11.05-.89.86-2.15,1.9-3.25,1.9-20.23.12-40.46.09-61.05.09-.06-1.37-.17-2.56-.17-3.76,0-18.62,0-37.24-.07-55.85a6.15,6.15,0,0,1,2.82-5.54c17.32-13.1,25.38-35.56,19.44-56.4-6.28-22-21.11-35.32-43.71-39.75-.85-.16-1.66-.46-2.49-.7Z" transform="translate(-768 -348)"/><path class="cls-1" d="M828,732c2.55-.57,5.13-1,7.63-1.74,21.24-6.35,35-20.19,39.25-42,4.14-21.45-3.09-39.39-20.16-53.12A6.3,6.3,0,0,1,852,629.6c.1-18.63,0-37.25,0-55.87V570.2c1.37-.08,2.45-.19,3.54-.19,18.75,0,37.5,0,56.24-.07a6.24,6.24,0,0,1,5.3,2.58,114.4,114.4,0,0,0,10.57,10.55,5.92,5.92,0,0,1,2.4,5q-.15,20.8,0,41.62a5.74,5.74,0,0,1-2.56,5.28C910,648.18,901.9,670.2,907.76,691.25c6.19,22.22,21,35.7,43.82,40.09a9.06,9.06,0,0,1,1.67.66Z" transform="translate(-768 -348)"/><path class="cls-1" d="M1092,348c-2.54.58-5.13,1-7.62,1.75-21.22,6.37-35,20.22-39.24,42-4.21,21.58,3,39.61,20.36,53.31a5.9,5.9,0,0,1,2.55,5.28c-.1,15.37,0,30.73-.06,46.09,0,8.89-4.74,13.59-13.69,13.6-15.36,0-30.73-.06-46.09.06-2.39,0-3.74-.83-5.29-2.59-3.36-3.82-7.25-7.17-10.74-10.9a7.27,7.27,0,0,1-2.09-4.26q-.23-21.35,0-42.71a6.25,6.25,0,0,1,2.17-4.2c18.27-14.81,25.68-33.87,19.89-56.57s-21.25-36-44.42-40.22A11.24,11.24,0,0,1,966,348Z" transform="translate(-768 -348)"/><path class="cls-1" d="M768,408c.59,2.54,1.09,5.1,1.78,7.61a53.24,53.24,0,0,0,19.32,29.06,6.51,6.51,0,0,1,3,5.84q-.12,89.51,0,179a6.12,6.12,0,0,1-2.71,5.58c-11.37,8.56-18.14,20-20.6,34-.17,1-.49,1.91-.74,2.87Z" transform="translate(-768 -348)"/><path class="cls-1" d="M768,684c.36,1.57.74,3.13,1.08,4.7,4.92,22.7,22,38.86,45.19,42.68A10.23,10.23,0,0,1,816,732H768Z" transform="translate(-768 -348)"/><path class="cls-1" d="M816,348c-2.66.61-5.37,1.06-8,1.85-21.8,6.7-35,21.21-39.32,43.65-.16.85-.46,1.67-.7,2.5V348Z" transform="translate(-768 -348)"/><path class="cls-1" d="M1152,396c-.61-2.65-1.07-5.35-1.85-7.94q-9.83-32.38-43-39.3c-.82-.18-1.61-.5-2.41-.76H1152Z" transform="translate(-768 -348)"/><path class="cls-1" d="M880.71,546H842.09c-9.5,0-14.08,4.52-14.08,14,0,25.87.09,51.74-.08,77.61,0,6.63,2.47,11,8.34,14.16A29.62,29.62,0,0,1,851,685.81,30,30,0,0,1,821.85,708a30.37,30.37,0,0,1-28.9-22.5c-3.38-12.92,2.3-27.07,14.12-33.34,6.63-3.52,9-8.31,9-15.65q-.26-96.56,0-193.11c0-7.17-2.32-11.94-8.82-15.39-12-6.37-17.71-20.53-14.26-33.62a30,30,0,0,1,57.87-.37c3.69,12.86-1.57,27-13.48,33.53-7.12,3.91-9.63,9-9.52,16.93.33,25.12.12,50.25.12,75.37,0,9.65,4.56,14.18,14.25,14.18,25.75,0,51.5-.1,77.24.07,6.61,0,11.22-2.29,14.19-8.27A26.68,26.68,0,0,1,946,513.58c5.64-2.8,8.15-7.17,8.1-13.52-.16-19.13-.2-38.25,0-57.37.08-6.77-2.41-11.26-8.44-14.48a29.91,29.91,0,1,1,44.28-25c-.51,11.21-5.8,19.83-15.73,25.13-5.89,3.16-8.33,7.59-8.26,14.2.2,19.12.17,38.25,0,57.37-.05,6.3,2.25,10.75,8,13.59a28,28,0,0,1,12.73,12.81c2.71,5.39,6.92,7.8,13,7.76,18.5-.11,37,0,55.49,0,21.28-.08,36.83-15.67,36.91-37,.07-18.12-.13-36.25.09-54.37.09-6.78-2.48-11.24-8.51-14.43-12.21-6.48-18-20.36-14.63-33.82,3.16-12.54,15.13-22,28.28-22.33a29.8,29.8,0,0,1,29.51,21.53c3.84,13.07-1.35,27.4-13.29,33.94-7.12,3.9-9.74,9-9.56,16.9.41,17.49.16,35,.12,52.5,0,28.06-21,49-49.08,49.09-18.37,0-36.74.1-55.12,0-6.18-.05-10.48,2.37-13.24,7.9a28,28,0,0,1-12.79,12.75c-5.56,2.77-7.86,7.14-7.81,13.3.14,19,.22,38,0,57-.09,7.05,2.42,11.67,8.74,15.06a29.52,29.52,0,0,1,14.27,33.94A30,30,0,0,1,959.77,708,30.3,30.3,0,0,1,931,685.75c-3.55-12.87,2-27.13,13.79-33.45,6.89-3.69,9.43-8.65,9.29-16.28-.35-18.74-.21-37.5-.07-56.24.05-6.19-2.39-10.48-7.91-13.25a28,28,0,0,1-12.75-12.79c-2.77-5.56-7.15-7.87-13.31-7.79C907,546.11,893.84,546,880.71,546Z" transform="translate(-768 -348)"/></svg>