<svg id="Layer_1" data-name="Layer 1" xmlns="http://www.w3.org/2000/svg" viewBox="0 0 384 384"><defs><style>.cls-1{fill:#fff;}</style></defs><path class="cls-1" d="M955.75,348H1177V732H1018.75c1.07-.29,2.13-.64,3.21-.87,10.66-2.24,19.66-7.34,26.27-16,3.53-4.65,6.38-9.83,9.45-14.82a188.95,188.95,0,0,1,69-66.15c17-9.53,24.89-24.11,24.77-43.44-.14-21.25-.07-42.49,0-63.73a35,35,0,0,0-10.69-25.87q-62.08-62-124.08-124c-10.85-10.84-23.29-19.3-38-23.79C971.18,351,963.4,349.72,955.75,348Z" transform="translate(-793 -348)"/><path d="M955.75,348c7.65,1.72,15.43,3,22.91,5.26,14.74,4.49,27.18,12.95,38,23.79q62,62,124.08,124A35,35,0,0,1,1151.46,527c0,21.24-.12,42.48,0,63.73.12,19.33-7.81,33.91-24.77,43.44a188.95,188.95,0,0,0-69,66.15c-3.07,5-5.92,10.17-9.45,14.82-6.61,8.69-15.61,13.79-26.27,16-1.08.23-2.14.58-3.21.87H823c-3.65-2.16-4.5-5.45-4.5-9.51q.11-127.47,0-254.94,0-42.75,0-85.49c0-8.35,2.14-16,7.61-22.55S838.9,349.74,847,348ZM831.34,719c1.4.08,2.37.19,3.34.19q88.86,0,177.71-.06a38.63,38.63,0,0,0,10.68-1.6c8.58-2.52,14.66-8.22,19-16a205.58,205.58,0,0,1,26-36.6,196.53,196.53,0,0,1,51.76-41.57c13.15-7.29,19.14-18.19,19-33.12-.26-20.74-.16-41.48,0-62.23a24.78,24.78,0,0,0-7.72-18.74q-61.37-61.11-122.5-122.45C991,369.32,970,360.66,945.27,360.75c-30.36.11-60.73,0-91.1,0-15.37,0-22.83,7.4-22.83,22.67V719Z" transform="translate(-793 -348)"/><path class="cls-1" d="M847,348c-8.1,1.74-15.35,4.93-20.83,11.51s-7.61,14.2-7.61,22.55q0,42.75,0,85.49,0,127.47,0,254.94c0,4.06.85,7.35,4.5,9.51H793V348Z" transform="translate(-793 -348)"/><path class="cls-1" d="M831.34,719V383.45c0-15.27,7.46-22.67,22.83-22.67,30.37,0,60.74.08,91.1,0,24.76-.09,45.74,8.57,63.23,26.14q61.13,61.35,122.5,122.45a24.78,24.78,0,0,1,7.72,18.74c-.15,20.75-.25,41.49,0,62.23.18,14.93-5.81,25.83-19,33.12A196.53,196.53,0,0,0,1068,665a205.58,205.58,0,0,0-26,36.6c-4.33,7.74-10.41,13.44-19,16a38.63,38.63,0,0,1-10.68,1.6q-88.86.14-177.71.06C833.71,719.22,832.74,719.11,831.34,719ZM978.43,520.76q63,0,126,0c3.43,0,6.61-.36,8.06-4,1.37-3.46-.38-5.94-2.73-8.29Q1053,451.74,996.25,395c-14.31-14.31-31.64-21.41-51.87-21.43q-39.54,0-79.1,0a27.41,27.41,0,0,0-7.39,1c-8.78,2.48-13.73,9.9-13.74,20.39q0,57.74,0,115.47c0,8.76,1.55,10.35,10.18,10.35Zm96.2,57.57c6.24,0,12.49.09,18.74,0,11.13-.19,19.45-8.29,19.61-19s-8.38-19.19-19.67-19.31q-18.74-.21-37.48,0c-11.13.13-19.49,8.36-19.63,19s8.38,19.08,19.69,19.27C1062.13,578.41,1068.38,578.33,1074.63,578.33Z" transform="translate(-793 -348)"/><path d="M978.43,520.76H854.33c-8.63,0-10.18-1.59-10.18-10.35q0-57.74,0-115.47c0-10.49,5-17.91,13.74-20.39a27.41,27.41,0,0,1,7.39-1q39.56-.09,79.1,0c20.23,0,37.56,7.12,51.87,21.43q56.74,56.72,113.47,113.45c2.35,2.35,4.1,4.83,2.73,8.29-1.45,3.68-4.63,4-8.06,4Q1041.41,520.74,978.43,520.76Zm32-13.05c.07-.88.15-1.37.15-1.86,0-25.36.05-50.73-.08-76.09a7.21,7.21,0,0,0-2.07-4.43c-6.69-6.91-13.62-13.59-20.33-20.48-12.26-12.59-27.15-18.6-44.68-18.54-25.61.1-51.23,0-76.85,0-7.6,0-9.58,2-9.58,9.53q0,54,0,108v3.88Zm13.18-66.24v66.14h66.15Z" transform="translate(-793 -348)"/><path d="M1074.63,578.33c-6.25,0-12.5.08-18.74,0-11.31-.19-19.84-8.58-19.69-19.27s8.5-18.87,19.63-19q18.74-.22,37.48,0c11.29.12,19.83,8.65,19.67,19.31s-8.48,18.77-19.61,19C1087.12,578.42,1080.87,578.33,1074.63,578.33Zm-.27-12.78c6.12,0,12.23.05,18.34,0,4.55,0,7.3-2.41,7.38-6.19s-2.66-6.49-7.1-6.53q-18.33-.13-36.67,0c-4.43,0-7.26,2.71-7.23,6.43s2.85,6.24,7.32,6.29C1062.39,565.6,1068.38,565.55,1074.36,565.55Z" transform="translate(-793 -348)"/><path class="cls-1" d="M1010.39,507.71H857v-3.88q0-54,0-108c0-7.57,2-9.53,9.58-9.53,25.62,0,51.24.07,76.85,0,17.53-.06,32.42,5.95,44.68,18.54,6.71,6.89,13.64,13.57,20.33,20.48a7.21,7.21,0,0,1,2.07,4.43c.13,25.36.09,50.73.08,76.09C1010.54,506.34,1010.46,506.83,1010.39,507.71Z" transform="translate(-793 -348)"/><path class="cls-1" d="M1023.57,441.47l66.15,66.14h-66.15Z" transform="translate(-793 -348)"/><path class="cls-1" d="M1074.36,565.55c-6,0-12,.05-18,0-4.47,0-7.29-2.55-7.32-6.29s2.8-6.4,7.23-6.43q18.35-.13,36.67,0c4.44,0,7.18,2.74,7.1,6.53s-2.83,6.15-7.38,6.19C1086.59,565.6,1080.48,565.55,1074.36,565.55Z" transform="translate(-793 -348)"/></svg>