<svg id="Layer_1" data-name="Layer 1" xmlns="http://www.w3.org/2000/svg" viewBox="0 0 384 384"><defs><style>.cls-1{fill:#fff;}</style></defs><path class="cls-1" d="M974.28,348H1152V732h-60c6.68-2.71,11.5-7,11.9-14.72.22-4.24.13-8.5,0-12.75-.09-3.74-2.43-6.21-5.64-6.2s-5.48,2.49-5.56,6.24,0,7.5,0,11.25c0,2.57-1.07,4.74-3.7,4.79-10,.2-19.91.08-29.88.08V670.33h33.58c0,2.32,0,4.31,0,6.3.07,4.13,2.12,6.58,5.5,6.64s5.72-2.39,5.72-6.44c0-16.62.75-33.29-.21-49.86-1.34-23.13-12.63-40.28-34.5-49.18-21.14-8.61-42.55-16.56-63.84-24.8-9.91-3.84-9.8-3.84-10-14.51a7.57,7.57,0,0,1,3.17-6.6,55.94,55.94,0,0,0,19.93-34.21c.5-2.84,1.7-3.71,4.45-4.23,10.32-1.94,17.34-8.05,20.51-18.08,3.11-9.83.74-18.64-6.66-25.7-2.49-2.38-2.88-4.59-2.34-7.56a50.14,50.14,0,0,1,9.21-21.47c6.06-8.13,6-16.59-.71-24.29-4.89-5.62-10.44-10.65-16-16.24,2.17-4,.08-7.41-3.16-10.64-9-9-20.09-14.28-32.14-17.67C986,350.18,980.1,349.24,974.28,348Z" transform="translate(-768 -348)"/><path class="cls-1" d="M828,732H768V348H958.53c-1.34.25-2.66.58-4,.74-10,1.17-19.68,3.53-28.6,8.31-10.86,5.83-19.64,13.67-23.92,25.71a3.41,3.41,0,0,1-2.19,1.95c-12.15,1.6-19.24,11-20.88,23.13-1.67,12.44,1,24.38,4.06,36.24a6,6,0,0,1-1.42,6.31c-6.65,7.73-8.32,16.69-4.84,26.25s10.62,15.14,20.64,17c1.07.2,2.12.5,3.17.75,2,13.49,7.11,25.5,17.3,34.24,5.66,4.85,7.32,9.86,6.75,16.74-.24,2.85-1.11,4.1-3.66,5.08-22.46,8.67-44.69,18-67.38,26a57.33,57.33,0,0,0-37.61,55.29c.44,26.87.31,53.75,0,80.62C815.8,721.91,818.89,728.6,828,732Z" transform="translate(-768 -348)"/><path d="M828,732c-9.12-3.4-12.21-10.09-12.09-19.6.33-26.87.46-53.75,0-80.62a57.33,57.33,0,0,1,37.61-55.29c22.69-8,44.92-17.38,67.38-26,2.55-1,3.42-2.23,3.66-5.08.57-6.88-1.09-11.89-6.75-16.74-10.19-8.74-15.3-20.75-17.3-34.24-1-.25-2.1-.55-3.17-.75-10-1.85-17.15-7.4-20.64-17s-1.81-18.52,4.84-26.25a6,6,0,0,0,1.42-6.31c-3.1-11.86-5.73-23.8-4.06-36.24,1.64-12.14,8.73-21.53,20.88-23.13a3.41,3.41,0,0,0,2.19-1.95c4.28-12,13.06-19.88,23.92-25.71,8.92-4.78,18.6-7.14,28.6-8.31,1.35-.16,2.67-.49,4-.74h15.75c5.82,1.24,11.73,2.18,17.45,3.79,12,3.39,23.12,8.69,32.14,17.67,3.24,3.23,5.33,6.67,3.16,10.64,5.55,5.59,11.1,10.62,16,16.24,6.7,7.7,6.77,16.16.71,24.29a50.14,50.14,0,0,0-9.21,21.47c-.54,3-.15,5.18,2.34,7.56,7.4,7.06,9.77,15.87,6.66,25.7-3.17,10-10.19,16.14-20.51,18.08-2.75.52-4,1.39-4.45,4.23a55.94,55.94,0,0,1-19.93,34.21,7.57,7.57,0,0,0-3.17,6.6c.18,10.67.07,10.67,10,14.51,21.29,8.24,42.7,16.19,63.84,24.8,21.87,8.9,33.16,26.05,34.5,49.18,1,16.57.25,33.24.21,49.86,0,4-2.3,6.49-5.72,6.44s-5.43-2.51-5.5-6.64c0-2,0-4,0-6.3h-33.58v50.36c10,0,19.93.12,29.88-.08,2.63-.05,3.7-2.22,3.7-4.79,0-3.75-.06-7.5,0-11.25s2.35-6.23,5.56-6.24,5.55,2.46,5.64,6.2c.09,4.25.18,8.51,0,12.75-.4,7.71-5.22,12-11.9,14.72H919.52c-2.5-1.87-4.65-4-3.34-7.48s4.16-3.92,7.36-3.79c2.12.09,4.25,0,6.38,0h14V593.2c-7.66,4.79-11.08,4.55-18-1.15-7.9-6.53-15.82-13-23.64-19.64a4.24,4.24,0,0,0-5-.85c-14,5.6-28.14,11-42.15,16.57s-23.13,16.12-26.42,30.81c-1.53,6.84-1.19,14.12-1.43,21.21-.21,6.08,0,12.17,0,18.32h33.87c0-10.76,0-21.23,0-31.71a19.79,19.79,0,0,1,.36-4.82,5.51,5.51,0,0,1,10.78.78,33.3,33.3,0,0,1,.1,4.12v93.91c7.2,0,13.93.07,20.65,0,3.22,0,6.11.39,7.36,3.82s-.82,5.63-3.4,7.46Zm264.54-73.44c0-11.46.88-22.65-.2-33.64-1.67-16.86-10.41-29.6-26.36-36.28-14.38-6-29.06-11.34-43.57-17a4,4,0,0,0-4.66.8c-8.3,7-16.7,13.93-25.09,20.84-5.17,4.27-10,4.42-15.33.57a7.79,7.79,0,0,0-1.26-.59V720.5h71.56v-4.66q0-45.55,0-91.12c0-4.55,2-6.88,5.57-6.86s5.63,2.44,5.65,6.9c0,9.87,0,19.75,0,29.62v4.18ZM911.32,441c0,11.87-.06,23.49,0,35.1,0,5.86-.09,11.78.64,17.58,3,23.92,24.62,41.67,49.48,41,24.5-.69,45.29-19.76,46.57-43.76.85-15.83.38-31.73.32-47.59a4,4,0,0,0-2.4-2.82c-7.75-2.25-11.92-6.76-12.68-14.79-.36-3.88-2.2-5.72-5.86-6.6a116.35,116.35,0,0,0-52.37-.63c-7.33,1.58-7.44,1.81-8.82,9.32-1.16,6.34-5.12,10.39-11.21,12.36C914,440.52,912.85,440.69,911.32,441Zm-11.53.15c1.52-8.24,3.14-9.9,11.23-11.67,2.67-.58,3.92-2.07,4.3-4.86,1.34-10,5.51-14.36,15.41-16.69a127,127,0,0,1,59,.13c9.21,2.17,13.46,7,14.65,16.51.36,2.88,1.75,4.7,4.66,5,6.26.57,9.71,3.91,10.65,10.11.12.77,1.23,1.62,2.08,1.95.32.12,1.61-1,1.72-1.72,1.62-10.1,5.9-19,12-27.13,2-2.67,1.73-5.69-.34-8.35-5.83-7.48-12.63-13.83-21.36-17.83-7.56-3.46-8.44-7.36-2.89-13.38a10.47,10.47,0,0,0-1.06-.94c-.92-.64-1.84-1.29-2.82-1.85-22.42-12.7-45.88-14.65-70-5.91-11.91,4.31-21.43,11.58-25.28,24.63-1.27,4.33-5.1,6.39-9.54,6.72-6.26.47-9.79,4-11.23,9.78-3.13,12.5.18,24.41,3.07,36.49Zm-72.49,229c0,15.61-.11,30.84.16,46.06,0,1.5,2.27,4.21,3.56,4.26,9.93.36,19.89.2,29.87.2V670.18Zm137.07,50.44V582.93h-8.69V720.62ZM935.71,541.06a36.13,36.13,0,0,1,0,5.2c-.64,3.64.83,6,3.75,8.12a126.25,126.25,0,0,1,10.66,8.82c1.62,1.47,3.56,3.22,4.07,5.17,1.1,4.3,4.2,2.79,6.77,3.08s4.12-.08,4.94-3c.52-1.86,2.25-3.54,3.78-4.93,3.13-2.85,6.23-5.89,9.82-8,5.79-3.49,5.26-8.47,4.46-14.15C967.92,547.47,952.1,547.48,935.71,541.06Zm-23.64,24.86,23.26,19.27c2.93-4.32,5.63-8.32,8.51-12.58-4.91-4.08-9.64-8.11-14.51-12a3.63,3.63,0,0,0-3-.28C921.78,562,917.29,563.87,912.07,565.92Zm64.14,6.68,8.52,12.63L1007.81,566c-5.19-2-9.68-3.91-14.25-5.52a4.08,4.08,0,0,0-3.33.55C985.61,564.7,981.15,568.51,976.21,572.6Zm-76.3-119.71a14.74,14.74,0,0,0,0,29.38Zm120.16.26v29.13a14.61,14.61,0,0,0,13.44-13.92C1033.83,461.05,1028.2,454.58,1020.07,453.15Z" transform="translate(-768 -348)"/><path class="cls-1" d="M897,732c2.58-1.83,4.66-4,3.4-7.46s-4.14-3.86-7.36-3.82c-6.72.1-13.45,0-20.65,0V626.84a33.3,33.3,0,0,0-.1-4.12,5.51,5.51,0,0,0-10.78-.78,19.79,19.79,0,0,0-.36,4.82c0,10.48,0,21,0,31.71H827.29c0-6.15-.17-12.24,0-18.32.24-7.09-.1-14.37,1.43-21.21,3.29-14.69,12.29-25.16,26.42-30.81s28.13-11,42.15-16.57a4.24,4.24,0,0,1,5,.85c7.82,6.62,15.74,13.11,23.64,19.64,6.89,5.7,10.31,5.94,18,1.15V720.75h-14c-2.13,0-4.26.07-6.38,0-3.2-.13-6.08.34-7.36,3.79s.84,5.61,3.34,7.48Z" transform="translate(-768 -348)"/><path class="cls-1" d="M1092.55,658.56H1058.9v-4.18c0-9.87,0-19.75,0-29.62,0-4.46-2.09-6.89-5.65-6.9s-5.57,2.31-5.57,6.86q0,45.56,0,91.12v4.66H976.08V593.21a7.79,7.79,0,0,1,1.26.59c5.35,3.85,10.16,3.7,15.33-.57,8.39-6.91,16.79-13.82,25.09-20.84a4,4,0,0,1,4.66-.8c14.51,5.71,29.19,11,43.57,17,16,6.68,24.69,19.42,26.36,36.28C1093.43,635.91,1092.55,647.1,1092.55,658.56Z" transform="translate(-768 -348)"/><path class="cls-1" d="M911.32,441c1.53-.34,2.64-.51,3.7-.86,6.09-2,10.05-6,11.21-12.36,1.38-7.51,1.49-7.74,8.82-9.32a116.35,116.35,0,0,1,52.37.63c3.66.88,5.5,2.72,5.86,6.6.76,8,4.93,12.54,12.68,14.79a4,4,0,0,1,2.4,2.82c.06,15.86.53,31.76-.32,47.59-1.28,24-22.07,43.07-46.57,43.76-24.86.7-46.47-17-49.48-41-.73-5.8-.6-11.72-.64-17.58C911.26,464.52,911.32,452.9,911.32,441Z" transform="translate(-768 -348)"/><path class="cls-1" d="M899.79,441.18l-5.76.95c-2.89-12.08-6.2-24-3.07-36.49,1.44-5.78,5-9.31,11.23-9.78,4.44-.33,8.27-2.39,9.54-6.72,3.85-13.05,13.37-20.32,25.28-24.63,24.12-8.74,47.58-6.79,70,5.91,1,.56,1.9,1.21,2.82,1.85a10.47,10.47,0,0,1,1.06.94c-5.55,6-4.67,9.92,2.89,13.38,8.73,4,15.53,10.35,21.36,17.83,2.07,2.66,2.33,5.68.34,8.35-6.07,8.15-10.35,17-12,27.13-.11.69-1.4,1.84-1.72,1.72-.85-.33-2-1.18-2.08-1.95-.94-6.2-4.39-9.54-10.65-10.11-2.91-.26-4.3-2.08-4.66-5-1.19-9.56-5.44-14.34-14.65-16.51a127,127,0,0,0-59-.13c-9.9,2.33-14.07,6.7-15.41,16.69-.38,2.79-1.63,4.28-4.3,4.86C902.93,431.28,901.31,432.94,899.79,441.18Z" transform="translate(-768 -348)"/><path class="cls-1" d="M827.3,670.18h33.59V720.7c-10,0-19.94.16-29.87-.2-1.29,0-3.54-2.76-3.56-4.26C827.19,701,827.3,685.79,827.3,670.18Z" transform="translate(-768 -348)"/><path class="cls-1" d="M964.37,720.62h-8.69V582.93h8.69Z" transform="translate(-768 -348)"/><path class="cls-1" d="M935.71,541.06c16.39,6.42,32.21,6.41,48.21.24.8,5.68,1.33,10.66-4.46,14.15-3.59,2.16-6.69,5.2-9.82,8-1.53,1.39-3.26,3.07-3.78,4.93-.82,2.94-2.51,3.28-4.94,3s-5.67,1.22-6.77-3.08c-.51-2-2.45-3.7-4.07-5.17a126.25,126.25,0,0,0-10.66-8.82c-2.92-2.11-4.39-4.48-3.75-8.12A36.13,36.13,0,0,0,935.71,541.06Z" transform="translate(-768 -348)"/><path class="cls-1" d="M912.07,565.92c5.22-2,9.71-3.9,14.27-5.55a3.63,3.63,0,0,1,3,.28c4.87,3.85,9.6,7.88,14.51,12-2.88,4.26-5.58,8.26-8.51,12.58Z" transform="translate(-768 -348)"/><path class="cls-1" d="M976.21,572.6c4.94-4.09,9.4-7.9,14-11.53a4.08,4.08,0,0,1,3.33-.55c4.57,1.61,9.06,3.48,14.25,5.52l-23.08,19.19Z" transform="translate(-768 -348)"/><path class="cls-1" d="M899.91,452.89v29.38a14.74,14.74,0,0,1,0-29.38Z" transform="translate(-768 -348)"/><path class="cls-1" d="M1020.07,453.15c8.13,1.43,13.76,7.9,13.44,15.21a14.61,14.61,0,0,1-13.44,13.92Z" transform="translate(-768 -348)"/></svg>