<svg id="Layer_1" data-name="Layer 1" xmlns="http://www.w3.org/2000/svg" viewBox="0 0 384 328.84"><path d="M23.41,147.19v-9c1.81-8.46,7.11-14.58,13.12-20.42C48,106.62,59.2,95.19,70.51,83.88A19.05,19.05,0,0,1,73,81.58a5.57,5.57,0,0,1,7.83,7.69A18.83,18.83,0,0,1,78.25,92L41.14,129.13c-8.12,8.12-8.66,15.66-1.82,25a78.63,78.63,0,0,1,5.06,7c1.79,3.1,3,2.76,5.41.38q43.89-44.13,88-88.07a13.36,13.36,0,0,1,1.07-1.06c1.37-1.07,1.15-1.91-.21-2.87-3.36-2.38-6.62-4.9-10-7.29-7.56-5.37-15.72-4.67-22.4,1.88-3.21,3.15-6.33,6.4-9.57,9.52-3,2.85-6.21,2.94-8.58.4s-2.1-5.45.67-8.3c3.58-3.67,7.16-7.35,10.9-10.84,9.34-8.7,23-10.26,33.52-3C146,60.66,158.43,70.15,171,79.46c3.25,2.42,3.45,5.74.76,8.77a67.43,67.43,0,0,1-6.08,6.11c-2,1.74-2.31,2.86-.17,5,11.43,11.19,22.7,22.54,34,33.9a6.2,6.2,0,0,0,4.87,2.13q11.06-.18,22.12,0a6.2,6.2,0,0,0,4.9-2.06c9.58-9.68,19.25-19.27,28.87-28.92,2.37-2.38,6.32-4.73,6.52-7.32.23-3-4.19-5.09-6.55-7.6-4.08-4.32-4-7.28.79-10.8q16.56-12.27,33.17-24.48c13.62-10,27.44-9,39.4,3,20.24,20.24,40.4,40.56,60.77,60.67,6,5.89,11.29,12,13.11,20.43v8.25c-1.27,3.76-2.11,7.71-4.52,11-9.16,12.5-18.29,25-27.55,37.43-2.55,3.43-5.85,3.55-9,.63a67.41,67.41,0,0,1-6.07-6.12c-1.75-2.05-3.11-2-4.68.07a9.54,9.54,0,0,1-1.85,1.85c-2.12,1.58-1.9,2.74,0,4.6,14.74,14.34,21,31.88,19.09,52.28a59.31,59.31,0,0,1-9.37,26.6c-2,3.18-5.24,4.12-8,2.51s-3.48-4.82-1.69-8.16c.29-.55.65-1.06,1-1.6a51.39,51.39,0,0,0-4.65-59.2c-6.13-7.47-6.62-7.46-13-.4-1.15,1.26-1.34,1.83.06,3.2,21.21,20.81,17.28,51.34-8.42,65.94-1,.54-2.13.88-2.2,2.28-.19,3.85-1.75,7.4-2.72,11.52a49.87,49.87,0,0,0,14.65-6.41c3.83-2.36,6.94-2,8.86,1s.92,6.06-2.79,8.46a61.3,61.3,0,0,1-26.9,9.63,9.65,9.65,0,0,0-5.66,2.44A35.31,35.31,0,0,1,295,314.3c-2.95.55-3.48,1.86-3.46,4.5.11,12.75,0,25.5,0,38.25a20.83,20.83,0,0,1-1.27,8.47c-2.68,6.12-7.36,9.79-14,10.34-7.14.6-12.55-2.53-16.19-8.7-1.94-3.29-8.19-3.43-10.08-.24-7.25,12.23-22.29,12.14-29.75-.17-1.68-2.77-8-2.81-9.73-.05-7.66,12.51-22.2,12.49-29.9-.05-1.69-2.75-8-2.66-9.72.14-4.41,7.33-11.54,10.6-18.93,8.68-7.93-2.06-12.6-8.31-12.75-17.23-.08-5.12-.17-10.25,0-15.37.12-2.77-.77-4.09-3.38-5.28-13.34-6.08-22.36-16.18-26.39-30.34-1-3.32-2.41-4.73-5.71-5.61-45.83-12.29-61.65-70.06-28.56-104,4.09-4.19,4-4.08,0-8.29-1.89-2-3.06-1.81-4.7.12S67,193,65.25,194.78c-4,3.93-7.12,3.71-10.54-.88q-9.06-12.17-18-24.43C31.54,162.48,25.73,155.87,23.41,147.19ZM131.66,250.35c1.4-1.28,2.42-2.17,3.38-3.11q28.68-28,57.36-56.07c12.32-12,28.59-13.17,42.6-3.12,8,5.75,16,11.56,24,17.35,13.86,10,27.75,20,41.54,30.15,2.25,1.65,3.23,1.56,3.9-1.26a61.88,61.88,0,0,1,2.28-7.11,3.59,3.59,0,0,0-1.08-4.29q-37.42-37.3-74.74-74.74a5.07,5.07,0,0,0-3.95-1.65q-11.61.1-23.23,0a4.72,4.72,0,0,0-3.62,1.53q-37.47,37.54-75,75c-1.07,1.07-1.62,2.05-1.11,3.6C126.5,234.33,129,242.05,131.66,250.35ZM311.36,58.66c-4.86-.16-9,3.21-13.1,6.44-2.44,1.9-6.69,3.2-6.86,5.8s3.76,4.55,5.94,6.73q42.09,42.16,84.2,84.3c1.83,1.83,2.81,2.27,4.4-.19,2.16-3.34,4.77-6.4,7-9.69,4.81-7,4.3-15.22-1.67-21.23Q357.76,97.06,324,63.5C320.79,60.28,316.83,58.63,311.36,58.66ZM247.67,211.28c-4.07,22.26-13.88,32.81-30.65,33.54a31,31,0,0,1-20.38-6.07c-7.61-5.6-11.74-13.29-13.1-23.39L154.84,246c12.91-.37,25.09,4.51,35,14.71s14,22.65,13.53,37.36c1.55-1.45,2.55-2.33,3.5-3.27q24.48-24,48.92-48.07c5.62-5.54,12-9.71,19.69-11.75,1-.27,2.2-.23,3.21-1.33Zm-92,46a36.65,36.65,0,1,0-.62,73.3c20,.3,36.86-16.24,37-36.38A36.67,36.67,0,0,0,155.71,257.29Zm-22.14-82.21c-.46,6.53-3.47,11.77-9.72,14.62s-12.53,2-17.8-2.67c-3.65-3.21-7-6.81-10.41-10.25-6.27-6.26-6.21-6.21-12.61.15-1.66,1.65-1.92,2.58-.1,4.37q16,15.76,31.82,31.8c1.67,1.69,2.61,1.88,4.42.07q34.89-35.08,70-70c2-1.93,1.62-2.91-.16-4.66-9.19-9-18.24-18.16-27.34-27.26-6.63-6.63-6.55-6.55-13.11.13-1.74,1.77-1.37,2.66.18,4.15,4.5,4.33,8.91,8.76,13.26,13.24,6.95,7.15,7.1,17.16.44,23.82s-16.66,6.49-23.81-.47c-4.48-4.35-8.91-8.76-13.24-13.27-1.51-1.57-2.54-2-4.15-.13a67,67,0,0,1-6.36,6.36c-1.72,1.52-1.73,2.53,0,4.15,4.61,4.39,9,9,13.54,13.49A17.51,17.51,0,0,1,133.57,175.08Zm180,16.23c-6.57-.4-11.89-3.46-14.74-9.9-2.92-6.6-1.75-12.81,3.12-18,4.59-4.94,9.45-9.63,14.29-14.34,1.38-1.34,1.55-2.25.05-3.61a82.83,82.83,0,0,1-6.62-6.63c-1.57-1.79-2.59-1.59-4.16.05-4.49,4.69-9.07,9.31-13.78,13.78-6.9,6.53-16.8,6.47-23.26,0s-6.59-16.59.09-23.55c3-3.15,6.18-6.2,9.27-9.29,6.51-6.49,6.45-6.42,0-12.87-1.73-1.74-2.67-1.74-4.39,0q-15.8,16-31.83,31.8c-1.76,1.73-1.73,2.65,0,4.38q35.08,34.91,70,70c2,2.05,3,1.45,4.69-.25,9-9.17,18.17-18.24,27.28-27.34,6.62-6.6,6.57-6.55-.24-13.07-1.53-1.47-2.39-1.55-3.89,0-4.32,4.51-8.82,8.84-13.21,13.29A18,18,0,0,1,313.53,191.31ZM286.08,304.1a29.65,29.65,0,1,0-29.77-29.64A29.65,29.65,0,0,0,286.08,304.1ZM159.1,84.8c-.61-.52-1-.93-1.51-1.28a33.68,33.68,0,0,1-4.18-3.16c-2.86-3-4.77-2.1-7.47.63Q103,124.23,59.85,167.22c-6.33,6.33-6.19,6.24-1.09,13.41,1.88,2.64,2.86,2,4.69.12,9.82-10,19.75-19.84,29.65-29.73l63.36-63.37C157.33,86.78,158.13,85.85,159.1,84.8ZM281,77.89c-.65.45-1.39.91-2.06,1.46-2.28,1.87-6.28,3.05-6.53,5.57-.22,2.28,3.47,4.19,5.48,6.21q42.78,42.84,85.61,85.64c6.68,6.68,6.6,6.63,12.16-1,1.36-1.87,1.06-2.85-.45-4.36q-45.93-45.79-91.76-91.69C282.74,79,282.17,78.1,281,77.89ZM215.25,233.61a20.51,20.51,0,1,0-20.34-20.55A20.35,20.35,0,0,0,215.25,233.61ZM88.17,201.1c-1.71,1.44-2.5,2-3.22,2.71-27.09,25.29-18.59,71,15.81,85,6.31,2.58,6.31,2.58,7.52-4a2.45,2.45,0,0,1,.17-.72c1.75-3.43-.08-4.53-3.09-5.71-26.15-10.35-33.65-44-14.51-64.64,4.22-4.54,4.18-4.5-.14-9A24.88,24.88,0,0,1,88.17,201.1Zm3.24,40a29.34,29.34,0,0,0,19.42,27.53c2.41.86,3.77.57,5.11-1.77a30.53,30.53,0,0,1,4.94-6.08,3.55,3.55,0,0,0,1-4.26c-2.51-7.43-5.13-14.85-7.12-22.43-1.59-6.08-5-10.67-9.47-14.77-1.61-1.46-2.5-1.31-3.93,0A28.68,28.68,0,0,0,91.41,241.12Zm234.46,24.29c16-9,18.9-33.93,2.8-46.71-.55-.44-1.16-1.19-1.89-.36-2.87,3.23-7,5.46-8.56,9.72-1.66,4.44-3,9-4.42,13.5-.44,1.35-.65,2.49.62,3.7A41.22,41.22,0,0,1,325.87,265.41Zm-81,7.69-28.75,30.75h41.29C249.07,295.27,245.19,285.41,244.89,273.1ZM240.78,338V323c0-7.72,0-7.62-7.69-7.66-2.47,0-3.5.47-3.47,3.25.15,13.13,0,26.25.08,39.37,0,4.22,2,6.67,5.37,6.75,3.52.09,5.65-2.39,5.69-6.84C240.82,351.22,240.77,344.6,240.78,338Zm28.57.56h0c0,6.86-.07,13.73,0,20.59.05,3.32,2.33,5.6,5.33,5.55,3.23-.05,5-1.87,5.48-5a23.63,23.63,0,0,0,.13-3.37q0-16.65,0-33.32c0-7.86,0-7.77-8.07-7.65-2.29,0-3,.71-3,3C269.44,325.05,269.35,331.79,269.35,338.53Zm-68.24-21.2-1.3-1q-4.45,5-8.93,9.95a2.9,2.9,0,0,0-.83,2c0,10.34-.08,20.68.08,31a5.3,5.3,0,0,0,5.56,5.37,5.37,5.37,0,0,0,5.38-5.55C201.17,345.21,201.11,331.27,201.11,317.33Zm-45-176.45a5.78,5.78,0,0,0-1.6-3.66c-4.82-4.87-9.69-9.69-14.48-14.58-1.07-1.09-2-1-2.7.13-1.54,2.46-5.31,3.2-5.26,6.86,0,.09.15.18.24.27,5,5,10,10,15.12,15a4.7,4.7,0,0,0,5.56.78A5.47,5.47,0,0,0,156.08,140.88Zm124,5.35a6,6,0,0,0,3.73-1.63c4.85-4.83,9.65-9.73,14.57-14.49,1.72-1.66.26-2.53-.72-3.15-2.26-1.42-3.67-6.39-6.45-4.26-5.58,4.28-10.23,9.8-15.15,14.92a4.64,4.64,0,0,0-.72,5.56A5.43,5.43,0,0,0,280.08,146.23Zm-157.8,28.63a6.33,6.33,0,0,0-2-4.33q-6.87-6.85-13.73-13.74c-.93-.94-1.85-1.94-2.93-.31-1.63,2.43-5.2,3.33-5.4,6.86,0,.09.15.19.23.28,5.13,5.08,10.21,10.22,15.42,15.22a4.59,4.59,0,0,0,5.58.51A5.49,5.49,0,0,0,122.28,174.86ZM313.83,180a5.84,5.84,0,0,0,3.76-1.63c4.86-4.83,9.66-9.72,14.58-14.49,1.7-1.66.27-2.56-.73-3.17-2.27-1.39-3.63-6.41-6.43-4.25-5.58,4.29-10.23,9.81-15.16,14.92a4.63,4.63,0,0,0-.72,5.56A5.43,5.43,0,0,0,313.83,180ZM161.44,351.76h0c0-2.61,0-5.22,0-7.83,0-1.23.08-3-1.78-2.27-3,1.2-7.92-2.34-8.91,2-1.16,5.08-.38,10.64-.14,16,.14,3.14,2.14,5,5.37,5.07,3,.09,5.26-2.17,5.42-5.44C161.54,356.75,161.44,354.25,161.44,351.76Zm57-17.23c0-5.5-.13-11,.05-16.5.09-2.65-1.29-2.67-3.23-2.7s-2.95.32-2.92,2.63q.15,16.5,0,33c0,2.25.85,2.77,2.86,2.64,1.78-.1,3.42.25,3.31-2.57C218.29,345.53,218.44,340,218.44,334.53Zm39.66-.22c0-5.37-.11-10.74.06-16.11.07-2.44-.94-2.88-3.09-2.89s-3.12.45-3.09,2.89q.17,16.29,0,32.59c0,2.47,1,2.85,3.09,2.84s3.18-.33,3.1-2.84C258,345.3,258.1,339.8,258.1,334.31Zm-79.31,2.13c-6,1.37-6.08,1.48-6.08,6.93,0,2.62.12,5.25,0,7.87-.13,2.22,1.09,2.48,2.78,2.33,1.47-.13,3.41.66,3.35-2.12C178.72,346.47,178.79,341.48,178.79,336.44Z" transform="translate(-23.41 -47.23)"/><path d="M155.16,310.79a16.93,16.93,0,1,1,17.23-16.94A17,17,0,0,1,155.16,310.79Zm5.94-16.91a5.71,5.71,0,0,0-11.42,0,5.71,5.71,0,0,0,11.42,0Z" transform="translate(-23.41 -47.23)"/><path d="M286,291.41a16.92,16.92,0,0,1-17-16.73,17,17,0,1,1,17,16.73Zm5.64-17a5.91,5.91,0,0,0-5.79-5.64,5.83,5.83,0,0,0-5.61,5.79,5.56,5.56,0,0,0,5.75,5.54A5.67,5.67,0,0,0,291.66,274.43Z" transform="translate(-23.41 -47.23)"/></svg>