<svg id="Layer_1" data-name="Layer 1" xmlns="http://www.w3.org/2000/svg" viewBox="0 0 318.71 220.09"><path d="M644.26,505.69c-6.81,7.68-13.92,3.09-20.61.39-6.41-2.58-10.37-9.92-9.87-16.33a8.73,8.73,0,0,1,10.51-8c5,1,10,2.26,14.89,3.74,5.43,1.65,7.58,6.05,8.84,11.35,2.32-6.91,5-13.74,6.88-20.76C660.1,457,673,448,692.07,445.4c42.46-5.78,84.95-5.88,127.53-2A189.55,189.55,0,0,1,843.66,447c12.9,2.89,22,10.48,26.64,22.88,3.32,8.86,6.11,17.92,9.18,27,1.15-.89.87-2.09,1.12-3.07a11.14,11.14,0,0,1,8-8.56c4.68-1.34,9.41-2.54,14.16-3.58a8.76,8.76,0,0,1,10.9,9.07,16.88,16.88,0,0,1-6.09,12.81c-4.44,3.78-9.94,5.25-15.47,6.14-3.47.56-6.42-1.42-8.87-4,.73,2.77,2.63,4.68,4.51,6.57,7.59,7.62,15.1,15.31,22.83,22.78C921.2,545.31,925,557.5,922,571.91c-1.59,7.45-3,14.93-4.51,22.39a34.8,34.8,0,0,1-13.33,21.47,5.7,5.7,0,0,0-2.46,5.32c.11,6.88.07,13.75,0,20.63-.08,11.43-7.66,19-19.11,19-3.75,0-7.5.08-11.25,0a18,18,0,0,1-17.61-17.81c0-2.13-.11-4.26,0-6.37a5.89,5.89,0,0,1,5.77-5.76,6,6,0,0,1,6.09,5.46c.21,2,0,4,.1,6,.16,4.19,2.35,6.4,6.58,6.5,3.63.08,7.26.09,10.88,0,4.14-.11,6.42-2.4,6.5-6.61.1-5.37-.12-10.76.09-16.12.1-2.74-.93-3.09-3.25-2.61-13.22,2.72-26.58,4.52-40,6a761.06,761.06,0,0,1-107.06,4.07,642.21,642.21,0,0,1-91.69-8.76l-.38,0c-3.08-.41-7.14-2.76-8.94-1.14-2.2,2-.58,6.33-.72,9.65-.13,3.12-.11,6.25,0,9.37.14,3.77,2.36,6,6.14,6.14s7.5.11,11.25,0c4.17-.1,6.38-2.37,6.55-6.57.08-1.88-.07-3.76.07-5.63a5.82,5.82,0,0,1,5.78-5.72c3.34,0,5.58,1.88,6,5.08,2.31,16.92-7.72,25.64-20.24,24.9-3.36-.2-6.75.05-10.12-.06a17.9,17.9,0,0,1-17.44-17.59c-.14-7.62-.08-15.25,0-22.87a4.41,4.41,0,0,0-2-4,35.29,35.29,0,0,1-13.92-22.34c-1.56-8.09-3.39-16.12-4.87-24.22-2.26-12.42,1-23.32,9.77-32.37,8.19-8.43,16.6-16.64,24.89-25C641.53,510.42,643.45,508.52,644.26,505.69ZM772.17,621.86c12.76.11,33.73-.82,54.66-2.52a485.86,485.86,0,0,0,59.33-8.09c10.54-2.18,17.24-8.61,19.54-19.25,1.61-7.43,3-14.93,4.5-22.38,2.07-10-.36-18.41-7.81-25.56-8-7.7-15.74-15.7-23.62-23.55a37.38,37.38,0,0,1-9.33-15.15c-3.07-9.36-6.39-18.64-9.3-28.05-3.42-11.07-10.72-17.18-22.1-19.12-21-3.57-42.15-4.95-63.4-5.24-28.63-.39-57.19.46-85.52,5.28-11,1.87-18.36,7.66-21.78,18.44-3,9.27-6.23,18.43-9.17,27.69a40.94,40.94,0,0,1-10.52,17c-7.91,7.81-15.73,15.73-23.61,23.57-6.08,6-8.81,13.28-7.3,21.79,1.62,9.08,3.19,18.21,5.47,27.14,2.35,9.25,8.82,14.85,18,17.2,2.89.73,5.87,1.17,8.82,1.69C687.05,619.41,725.4,621.78,772.17,621.86Z" transform="translate(-604.29 -440.73)"/><path d="M764.09,558.75q26.61,0,53.23,0c14.77,0,22.91,11.24,18.34,25.25-1.27,3.91-2.53,7.83-3.91,11.71-2.48,6.95-7.38,11.18-14.65,12.44a310.34,310.34,0,0,1-107-.07,17.49,17.49,0,0,1-14.16-12c-1.65-4.57-3.25-9.17-4.64-13.83-3.59-12.06,4.71-23.41,17.3-23.49C727.09,558.67,745.59,558.76,764.09,558.75Zm0,12q-27.15,0-54.31,0c-5.83,0-8.4,3.55-6.67,9.08,1.19,3.8,2.5,7.57,3.77,11.35A7.1,7.1,0,0,0,713,596.4c7.89,1.26,15.79,2.35,23.74,3.1a295.41,295.41,0,0,0,77.94-3.12,6.93,6.93,0,0,0,5.91-5q1.78-5.31,3.53-10.64c2.22-6.75-.12-10-7.25-10Z" transform="translate(-604.29 -440.73)"/><path d="M763.75,504.75h81a21.15,21.15,0,0,1,3.74.1c3.22.59,5.19,2.59,5.19,5.9s-2,5.3-5.19,5.9a21.21,21.21,0,0,1-3.74.1H681.63c-5,0-7.85-2.17-7.85-6s2.8-6,7.85-6Z" transform="translate(-604.29 -440.73)"/><path d="M659.83,600.76c-7.15-1.26-15.81-2.47-24.3-4.4-6.21-1.41-9.53-7.15-8.37-13.5a104.09,104.09,0,0,1,3.2-13.06c2.16-6.73,9.51-9.82,16.08-7.09,6.34,2.63,12.59,5.44,17.93,9.9,4.2,3.51,7.43,7.68,8.85,13.09C675.3,593.62,669.51,601,659.83,600.76Zm2-12c-2.92-6.69-8.14-9.59-13.51-12.27-6.56-3.29-6.58-3.24-8.3,3.65-.18.72-.34,1.46-.57,2.17-.57,1.72-.33,2.7,1.81,3C647.92,586.34,654.52,587.53,661.85,588.77Z" transform="translate(-604.29 -440.73)"/><path d="M900.51,583.89c.06,6.32-3.3,11.24-8.75,12.38-8.43,1.75-16.92,3.36-25.46,4.32-7.83.87-14-6.92-12.24-14.59a23.35,23.35,0,0,1,6.46-11.22c6.26-6.26,14-10,22.23-12.74a11.26,11.26,0,0,1,13.75,6.33A72.7,72.7,0,0,1,900.51,583.89Zm-34.61,5c5.93-1,11.53-2.51,17.19-2.83,5.39-.29,7.25-3.3,8.36-7.71.4-1.59,1.06-3.23-.22-4.6s-3-.85-4.56-.32A53.82,53.82,0,0,0,872,580.72C869.33,582.71,866.88,585,865.9,588.84Z" transform="translate(-604.29 -440.73)"/></svg>