<svg width="349" height="338" viewBox="0 0 349 338" fill="none" xmlns="http://www.w3.org/2000/svg">
<g clip-path="url(#clip0_446_2367)">
<path d="M201.01 299.99C183.497 304.944 164.953 304.944 147.44 299.99C145.154 303.95 142.86 307.913 140.56 311.88C136.44 319 132.35 326.14 128.19 333.24C124.87 338.92 120.61 339.19 116.4 334.04C112.19 328.89 107.92 323.88 103.94 318.61C102.32 316.47 100.64 316.04 98.2103 316.45C90.0903 317.81 81.9503 318.96 73.8503 320.39C70.8503 320.91 68.3403 320.66 66.5803 318.02C64.8203 315.38 65.5003 312.88 66.9903 310.31C75.8303 295.12 84.5503 279.86 93.4503 264.7C94.7103 262.57 94.6303 261.14 93.3203 259.06C56.4003 200.73 91.1003 123.91 159.32 112.84C212.61 104.19 263.23 142.4 269.5 196.01C272.17 218.78 267.5 239.89 255.2 259.26C254.599 260.01 254.265 260.938 254.248 261.899C254.232 262.86 254.535 263.8 255.11 264.57C263.93 279.63 272.59 294.78 281.36 309.87C282.95 312.61 284.04 315.32 281.95 318.21C279.95 320.94 277.21 320.82 274.19 320.28C266.34 318.9 258.43 317.83 250.57 316.45C249.451 316.149 248.266 316.213 247.186 316.634C246.106 317.055 245.19 317.811 244.57 318.79C240.57 324.06 236.3 329.1 232.1 334.21C228.03 339.15 223.74 338.85 220.54 333.36C214.38 322.81 208.29 312.23 202.16 301.66C201.84 301.09 201.45 300.61 201.01 299.99ZM174.37 123.75C157.767 123.74 141.533 128.654 127.722 137.87C113.911 147.086 103.143 160.191 96.7798 175.527C90.4167 190.863 88.7441 207.742 91.9736 224.028C95.2032 240.315 103.19 255.278 114.923 267.026C126.657 278.774 141.611 286.778 157.893 290.027C174.176 293.276 191.057 291.623 206.4 285.279C221.744 278.934 234.862 268.181 244.094 254.381C253.327 240.581 258.26 224.353 258.27 207.75C258.301 196.719 256.152 185.79 251.947 175.592C247.743 165.393 241.566 156.125 233.77 148.321C225.975 140.516 216.714 134.327 206.521 130.111C196.327 125.894 185.401 123.733 174.37 123.75ZM121.32 321.15L135.96 295.83C123.471 290.21 112.247 282.125 102.96 272.06C96.2603 283.66 89.7703 294.92 82.8803 306.88C89.6303 305.8 95.5403 304.98 101.39 303.88C102.964 303.474 104.625 303.563 106.146 304.136C107.667 304.709 108.975 305.737 109.89 307.08C113.45 311.66 117.18 316.13 121.32 321.15ZM212.6 295.83L227.24 321.19C231.07 316.5 234.81 312.19 238.24 307.64C240.8 304.22 243.7 303.11 247.93 304.02C253.53 305.21 259.25 305.82 265.68 306.79C258.77 294.79 252.32 283.52 245.68 271.97C236.423 282.126 225.159 290.25 212.6 295.83Z" fill="#FFBF14"/>
<path d="M174.18 0C176.68 2.39 178.98 3.75998 180.07 5.78998C183.49 12.15 186.5 18.72 189.55 25.27C189.858 26.1287 190.417 26.8746 191.156 27.4099C191.895 27.9451 192.778 28.2449 193.69 28.27C200.63 29.03 207.52 30.16 214.44 31.06C217.44 31.45 220.03 32.31 221.06 35.58C222.06 38.69 220.5 40.81 218.4 42.8C213.51 47.43 208.73 52.19 203.76 56.73C201.82 58.5 201.09 60.11 201.71 62.86C203.23 69.66 204.26 76.57 205.55 83.43C206.07 86.23 205.64 88.65 203.19 90.43C200.74 92.21 198.56 91.69 196.19 90.43C189.74 86.92 183.29 83.38 176.71 80.11C175.968 79.7951 175.171 79.6328 174.365 79.6328C173.559 79.6328 172.762 79.7951 172.02 80.11C165.67 83.27 159.46 86.71 153.23 90.11C150.68 91.51 148.16 92.32 145.54 90.4C142.92 88.48 142.79 86.01 143.39 83.06C144.77 76.22 145.84 69.32 147.19 62.48C147.462 61.5356 147.449 60.5322 147.154 59.5949C146.859 58.6576 146.294 57.8281 145.53 57.21C140.39 52.49 135.41 47.59 130.34 42.78C128.27 40.78 126.57 38.78 127.59 35.61C128.61 32.44 131.14 31.46 134.21 31.08C141.21 30.2 148.3 29.27 155.3 28.08C156.025 27.9156 156.709 27.6057 157.31 27.1691C157.912 26.7325 158.419 26.1783 158.8 25.54C162.18 19.02 165.14 12.28 168.6 5.79999C169.62 3.82999 171.76 2.41 174.18 0ZM191.56 74.37C190.64 69.06 189.99 64.37 188.96 59.8C188.57 58.3599 188.606 56.8375 189.064 55.4175C189.522 53.9975 190.382 52.7408 191.54 51.8C194.99 48.62 198.34 45.32 202.24 41.6C196.92 40.81 192.3 39.92 187.65 39.49C184.08 39.16 182.04 37.38 180.65 34.27C178.79 30.13 176.65 26.08 174.36 21.27C172.19 25.73 170.11 29.38 168.6 33.27C166.94 37.52 164.1 39.5 159.6 39.86C155.42 40.19 151.26 40.91 147.33 41.43C150.53 44.84 153.52 48.31 156.81 51.43C159.38 53.9 160.5 56.43 159.62 60.07C158.54 64.51 157.98 69.07 157.07 74.27C161.72 71.82 165.92 69.76 169.95 67.44C171.257 66.5912 172.782 66.1395 174.34 66.1395C175.898 66.1395 177.423 66.5912 178.73 67.44C182.72 69.75 186.82 71.83 191.55 74.37H191.56Z" fill="#FFBF14"/>
<path d="M277.18 145.63C272.43 145.63 269.88 142.43 270.6 138.22C271.79 131.22 273.01 124.22 274.42 117.22C274.767 116.046 274.751 114.794 274.375 113.629C273.998 112.464 273.279 111.44 272.31 110.69C267.31 106.21 262.56 101.4 257.67 96.7705C255.56 94.7705 254.06 92.6805 255.06 89.5505C256.06 86.4205 258.56 85.5505 261.4 85.2005C268.2 84.2905 274.98 83.3405 281.79 82.5205C282.893 82.4802 283.958 82.1111 284.849 81.4607C285.74 80.8102 286.416 79.9082 286.79 78.8705C289.46 72.8705 292.55 66.9905 295.35 61.0105C296.68 58.1605 298.15 55.6705 301.78 55.7005C305.41 55.7305 306.78 58.3805 308.13 61.1705C310.95 67.1705 313.96 73.0205 316.66 79.0405C317.78 81.5505 319.4 82.4205 322.04 82.7105C328.97 83.4605 335.86 84.6105 342.78 85.4905C345.53 85.8405 347.45 87.0405 348.36 89.7205C349.27 92.4005 348.16 94.5605 346.24 96.4005C340.93 101.49 335.53 106.51 330.39 111.76C329.871 112.374 329.48 113.086 329.241 113.854C329.003 114.622 328.921 115.43 329 116.23C330.09 123.37 331.49 130.47 332.83 137.56C333.36 140.37 333.13 143.27 330.43 144.38C328.209 145.251 325.741 145.251 323.52 144.38C317.22 141.38 311.13 137.98 305.08 134.51C302.79 133.21 301 133.05 298.63 134.43C292.7 137.86 286.63 141.01 280.55 144.21C279.455 144.748 278.33 145.222 277.18 145.63ZM274.77 95.6305C277.98 99.1005 280.87 102.52 284.08 105.63C286.76 108.21 287.87 110.87 286.95 114.63C285.88 119.02 285.34 123.55 284.47 128.57C288.79 126.29 292.66 124.57 296.21 122.27C300.08 119.82 303.51 119.97 307.32 122.36C310.88 124.59 314.72 126.36 318.97 128.64C318.07 123.41 317.44 118.73 316.42 114.15C315.64 110.66 316.75 108.2 319.19 105.81C322.44 102.62 325.4 99.1405 328.58 95.6905C324.58 95.1405 320.51 94.2905 316.35 94.0305C311.94 93.7605 309.26 91.7705 307.59 87.7305C305.92 83.6905 303.93 80.0005 301.76 75.5205C299.31 80.5205 297.08 84.8105 295.09 89.2005C294.538 90.5269 293.621 91.6697 292.446 92.4963C291.271 93.3228 289.885 93.7993 288.45 93.8705C283.86 94.4105 279.31 95.0505 274.75 95.6505L274.77 95.6305Z" fill="#FFBF14"/>
<path d="M78.2805 139.13C78.4105 144.28 73.6205 147.08 69.0205 144.69C62.7205 141.43 56.4605 138.08 50.3105 134.56C48.0205 133.25 46.2305 133.07 43.8605 134.45C37.8605 137.93 31.6005 141.08 25.4805 144.45C23.0005 145.82 20.5405 146.27 18.1205 144.53C15.7005 142.79 15.3905 140.33 15.9405 137.53C17.3305 130.44 18.7105 123.35 19.7405 116.2C19.7918 115.338 19.6705 114.475 19.3837 113.661C19.097 112.847 18.6505 112.099 18.0705 111.46C13.0705 106.37 7.90052 101.53 2.76052 96.6196C0.760516 94.7196 -0.659496 92.6796 0.310504 89.7096C1.2805 86.7396 3.43049 85.7096 6.23049 85.3596C13.0305 84.4696 19.8005 83.4596 26.6005 82.6596C29.3005 82.3396 31.0205 81.4096 32.1905 78.7096C34.9305 72.4396 38.1205 66.3696 41.0505 60.1796C42.2505 57.6296 43.8705 55.7796 46.9105 55.7696C49.9505 55.7596 51.6105 57.6396 52.8205 60.1596C55.8805 66.5596 59.0605 72.9096 62.0005 79.3596C62.3754 80.3317 63.0311 81.1704 63.8841 81.7687C64.7371 82.3671 65.7488 82.6981 66.7905 82.7196C73.7905 83.5396 80.8505 84.6596 87.8905 85.5496C90.6305 85.8896 93.1305 86.9896 93.3305 89.7296C93.5044 92.1013 92.7917 94.4532 91.3305 96.3296C86.5005 101.53 81.3305 106.33 76.0105 111.14C75.1592 111.832 74.5314 112.76 74.2058 113.808C73.8803 114.856 73.8715 115.977 74.1805 117.03C75.6405 124.49 76.9605 131.97 78.2805 139.13ZM64.0905 128.63C63.2805 123.89 62.9005 119.69 61.8105 115.69C60.5505 111.08 61.9005 107.86 65.3605 104.81C68.4405 102.08 71.0405 98.8096 73.9005 95.6996C70.0805 95.1496 66.2905 94.2296 62.4705 94.1496C57.0505 94.0396 54.0905 91.3796 52.2305 86.5596C50.8505 82.9596 48.9305 79.5596 46.9505 75.4796C44.6405 80.2696 42.6105 84.1296 40.8905 88.1096C40.2804 89.8145 39.1646 91.2928 37.6923 92.347C36.22 93.4012 34.4611 93.9812 32.6505 94.0096C28.3805 94.3096 24.1505 95.1296 20.4505 95.6396C23.6205 99.1896 26.7405 102.86 30.0605 106.35C32.1205 108.51 33.0605 110.72 32.3805 113.76C31.3805 118.48 30.6705 123.26 29.7405 128.58C34.4805 126.06 38.7905 123.87 42.9905 121.5C44.1428 120.757 45.4826 120.359 46.8532 120.35C48.2238 120.341 49.5687 120.722 50.7305 121.45C54.9305 123.83 59.2305 126.03 64.0905 128.63Z" fill="#FFBF14"/>
<path d="M233.35 207.83C233.315 219.496 229.822 230.888 223.313 240.569C216.805 250.25 207.573 257.784 196.783 262.219C185.994 266.655 174.132 267.792 162.697 265.488C151.261 263.184 140.766 257.542 132.536 249.274C124.306 241.007 118.712 230.485 116.46 219.039C114.208 207.594 115.4 195.737 119.885 184.968C124.369 174.2 131.946 165.002 141.656 158.538C151.366 152.073 162.775 148.633 174.44 148.65C190.082 148.745 205.051 155.019 216.086 166.105C227.121 177.191 233.327 192.189 233.35 207.83ZM174.35 160.67C165.05 160.67 155.959 163.43 148.228 168.598C140.497 173.767 134.473 181.114 130.918 189.708C127.364 198.301 126.439 207.757 128.261 216.877C130.083 225.996 134.569 234.371 141.152 240.94C147.735 247.509 156.119 251.977 165.243 253.78C174.366 255.582 183.819 254.637 192.406 251.064C200.992 247.491 208.326 241.452 213.478 233.709C218.63 225.967 221.37 216.87 221.35 207.57C221.277 195.141 216.299 183.243 207.499 174.464C198.7 165.685 186.79 160.735 174.36 160.69L174.35 160.67Z" fill="#FFBF14"/>
<path d="M164.76 219.66L190.5 193.88C191.339 192.958 192.249 192.102 193.22 191.32C195.89 189.32 198.66 189.43 201.01 191.74C203.36 194.05 203.51 196.87 201.54 199.53C200.352 200.958 199.059 202.296 197.67 203.53C188.07 213.15 178.46 222.76 168.84 232.36C164.35 236.83 160.62 236.36 157.46 230.92C154.013 225 150.603 219.056 147.23 213.09C144.88 208.95 145.54 205.56 148.92 203.74C152.14 202.02 155.23 203.21 157.55 207.15C159.87 211.09 162.18 215.15 164.76 219.66Z" fill="#FFBF14"/>
</g>
<defs>
<clipPath id="clip0_446_2367">
<rect width="348.67" height="337.67" fill="white"/>
</clipPath>
</defs>
</svg>
