<svg id="Layer_1" data-name="Layer 1" xmlns="http://www.w3.org/2000/svg" viewBox="0 0 409.6 409.6"><defs><style>.cls-1{fill:#fff;}</style></defs><path class="cls-1" d="M779,744.6H755V335h409.6V744.6h-98.91c7-2.69,9.79-7.86,9.64-15.24-.22-11.31-.19-22.63,0-33.94.1-6.93-2.82-11.65-9-14.56-4.34-2-8.49-4.46-12.89-6.31-2.88-1.22-3.76-2.83-3.76-6q.16-86.43.08-172.87v-4.27a26.46,26.46,0,0,1,2.56,1.06c14.28,8,22.92,19.64,23,36.51.1,31.81,0,63.62.06,95.42a96.41,96.41,0,0,0,.68,11.14c2.49,21.19,26,36.78,46.65,31,18.45-5.21,29.28-19.43,29.3-38.82q.06-94,.06-188c0-6.91-2.82-11.5-9-14.53-14.1-6.86-28.06-14-42.09-21a75.12,75.12,0,0,0-8.29-3.88,12.46,12.46,0,0,0-16.63,11.84c0,5.5,2.68,9.32,7.47,11.76,6.25,3.18,12.53,6.32,18.38,9.27a51.91,51.91,0,0,0-.37,6.82c1.22,14.65,9.18,24.9,21.54,32,2.55,1.46,3.51,2.82,3.51,5.76q-.15,74.66-.08,149.32a35.85,35.85,0,0,1-.08,3.59A12.79,12.79,0,0,1,1109,641.31c-5.24-2-8.17-6.71-8.17-13.35,0-32.6-.46-65.21.12-97.81.56-31.92-23.36-57.35-47.94-64.53-2.74-.8-3.38-2-3.37-4.69q.16-36.53,0-73.06c-.08-30.28-21.89-52.09-52.16-52.12q-75.06-.08-150.13,0c-31,0-53.27,22.39-53.27,53.42q0,58.68,0,117.38,0,81,.07,162.09c0,2.9-.67,4.56-3.45,5.76-4.63,2-9,4.49-13.59,6.68-5.9,2.84-8.69,7.43-8.62,14,.12,10.77.39,21.57-.08,32.33C768.09,735.83,771.18,741.48,779,744.6Z" transform="translate(-755 -335)"/><path d="M779,744.6c-7.78-3.12-10.87-8.77-10.5-17.18.47-10.76.2-21.56.08-32.33-.07-6.58,2.72-11.17,8.62-14,4.55-2.19,9-4.68,13.59-6.68,2.78-1.2,3.46-2.86,3.45-5.76q-.13-81-.07-162.09,0-58.69,0-117.38c0-31,22.25-53.39,53.27-53.42q75.06-.08,150.13,0c30.27,0,52.08,21.84,52.16,52.12q.09,36.53,0,73.06c0,2.68.63,3.89,3.37,4.69,24.58,7.18,48.5,32.61,47.94,64.53-.58,32.6-.14,65.21-.12,97.81,0,6.64,2.93,11.33,8.17,13.35a12.79,12.79,0,0,0,17.29-10.73,35.85,35.85,0,0,0,.08-3.59q0-74.67.08-149.32c0-2.94-1-4.3-3.51-5.76-12.36-7.08-20.32-17.33-21.54-32a51.91,51.91,0,0,1,.37-6.82c-5.85-2.95-12.13-6.09-18.38-9.27-4.79-2.44-7.48-6.26-7.47-11.76a12.46,12.46,0,0,1,16.63-11.84,75.12,75.12,0,0,1,8.29,3.88c14,7,28,14.16,42.09,21,6.23,3,9.06,7.62,9,14.53q-.12,94-.06,188c0,19.39-10.85,33.61-29.3,38.82-20.63,5.81-44.16-9.78-46.65-31a96.41,96.41,0,0,1-.68-11.14c0-31.8,0-63.61-.06-95.42,0-16.87-8.69-28.51-23-36.51a26.46,26.46,0,0,0-2.56-1.06v4.27q0,86.45-.08,172.87c0,3.15.88,4.76,3.76,6,4.4,1.85,8.55,4.28,12.89,6.31,6.22,2.91,9.14,7.63,9,14.56-.18,11.31-.21,22.63,0,33.94.15,7.38-2.64,12.55-9.64,15.24ZM1049.7,719c0-5.65.12-11-.1-16.23,0-1-1.32-2.15-2.31-2.69a132,132,0,0,0-12.48-6.24c-7.79-3.19-10.77-8.71-10.76-17.13q.24-143.71.1-287.45c0-17.89-10.08-27.94-28-27.94q-73.66,0-147.34,0c-18.74,0-29.15,10.42-29.15,29.16q0,143.73.06,287.45c0,7.23-2.7,12.19-9.32,15.18-4.72,2.14-9.31,4.55-13.9,7-.94.5-2.24,1.51-2.27,2.32-.2,5.52-.11,11-.11,16.61Z" transform="translate(-755 -335)"/><path class="cls-1" d="M1049.7,719H794.15c0-5.57-.09-11.09.11-16.61,0-.81,1.33-1.82,2.27-2.32,4.59-2.41,9.18-4.82,13.9-7,6.62-3,9.33-8,9.32-15.18q-.13-143.73-.06-287.45c0-18.74,10.41-29.16,29.15-29.16q73.68,0,147.34,0c17.89,0,28,10,28,27.94q0,143.73-.1,287.45c0,8.42,3,13.94,10.76,17.13a132,132,0,0,1,12.48,6.24c1,.54,2.27,1.74,2.31,2.69C1049.82,708,1049.7,713.32,1049.7,719ZM922,527.39q30.93,0,61.88,0c9.75,0,14.68-5,14.68-14.78q0-49.1,0-98.2c0-9.8-4.94-14.77-14.69-14.77q-61.87,0-123.76,0c-10,0-14.88,4.9-14.89,15q0,48.9,0,97.8c0,10.07,4.88,15,14.89,15Z" transform="translate(-755 -335)"/><path d="M922,527.39H860.14c-10,0-14.88-4.91-14.89-15q0-48.9,0-97.8c0-10.08,4.87-15,14.89-15q61.88,0,123.76,0c9.75,0,14.69,5,14.69,14.77q0,49.11,0,98.2c0,9.81-4.93,14.77-14.68,14.78Q953,527.42,922,527.39Zm-50.94-102v76.17H972.82V425.35Z" transform="translate(-755 -335)"/><path class="cls-1" d="M871.09,425.35H972.82v76.17H871.09Z" transform="translate(-755 -335)"/></svg>