<svg width="327" height="409" viewBox="0 0 327 409" fill="none" xmlns="http://www.w3.org/2000/svg">
<g clip-path="url(#clip0_446_2399)">
<path d="M148.23 408.74C139.71 405.82 136.23 399.74 136.88 390.93C137.12 387.79 136.88 384.62 136.88 380.93C131.03 380.93 125.61 380.93 120.2 380.93C108.49 380.87 102.54 374.93 102.52 363.27C102.52 358.12 101.9 352.88 105.02 348.17C105.43 347.54 104.65 346.05 104.29 345C101.63 337.21 101.19 329.37 104.63 321.77C105.733 319.5 107.497 317.618 109.69 316.37C112.3 314.91 113.14 313.31 113.04 310.43C112.82 304.05 112.85 297.66 113.04 291.28C113.31 279.28 108.43 270.44 98.31 263.95C77.84 250.82 62.31 233.14 53.13 210.59C35.41 167.19 40.69 126.19 69.17 88.8496C88.39 63.6596 114.42 49.1196 145.7 44.0196C146.485 43.8863 147.276 43.7928 148.07 43.7396C152.07 43.4896 154.65 45.2196 155.27 48.4896C155.89 51.7596 153.68 54.6096 149.73 55.4896C144.43 56.6896 138.98 57.3996 133.79 58.9496C99.02 69.3796 74.49 91.4896 62.06 125.5C44.06 174.66 61.31 225.06 105.06 254.05C118.67 263.05 125.31 275.37 125.06 291.59C124.95 298.76 125.06 305.93 125.06 313.39H201.89C201.89 308.69 201.67 303.95 201.89 299.23C202.3 291.96 202.27 284.54 203.82 277.49C205.82 268.49 211.33 261.38 218.98 256.2C231.74 247.56 243.28 237.73 252.16 224.93C261.606 211.362 267.84 195.823 270.39 179.49C270.52 178.7 270.63 177.91 270.82 177.14C271.82 173.08 274.43 171.06 277.82 171.63C281.21 172.2 283.06 174.98 282.49 179.19C280.733 192.654 276.652 205.711 270.43 217.78C260.88 236.21 247.68 251.52 230.17 262.72C218.33 270.29 212.89 280.57 213.76 294.52C214.12 300.22 213.67 305.97 213.92 311.68C214.005 312.458 214.25 313.21 214.641 313.888C215.032 314.566 215.559 315.156 216.19 315.62C221.46 318.96 224.36 323.51 224.26 329.78C224.17 335.43 225.26 341.26 221.75 346.46C221.4 346.98 221.75 348.2 222.14 348.94C225.52 355.78 224.91 362.94 223.42 369.94C222.06 376.37 216.37 380.55 209.75 380.78C203.28 381 196.8 380.78 189.88 380.78C189.88 384.64 189.69 387.95 189.88 391.22C190.51 399.95 186.88 405.77 178.55 408.64L148.23 408.74ZM163.57 325.66C148.95 325.66 134.34 325.72 119.73 325.66C116.02 325.66 114.25 327.09 114.48 330.85C114.55 332.04 114.48 333.24 114.48 334.44C114.48 340.87 115.07 341.44 121.48 341.44H201.98C212.36 341.44 212.36 341.44 212.2 331.21C212.12 326.44 211.39 325.69 206.55 325.68C192.263 325.653 177.937 325.646 163.57 325.66ZM163.77 353.41H123.47C114.47 353.41 114.47 353.41 114.47 362.41C114.47 368.57 114.91 369 121.06 369H202.46C212.34 369 212.34 369 212.24 359.21C212.18 354.13 211.53 353.43 206.45 353.42C192.257 353.393 178.04 353.39 163.8 353.41H163.77ZM148.93 381.19C148.93 385.61 148.7 389.6 149.08 393.53C149.19 394.68 150.98 396.53 152.08 396.6C159.63 396.87 167.18 396.85 174.73 396.6C175.81 396.6 177.67 394.96 177.73 393.97C178.07 389.8 177.88 385.58 177.88 381.17L148.93 381.19Z" fill="#FFBF14"/>
<path d="M144.24 102.63C144.24 96.9105 144.18 91.4605 144.24 86.0105C144.34 79.6605 147.41 76.4205 153.79 76.2405C160.17 76.0605 166.56 76.0605 172.94 76.2405C179.32 76.4205 182.47 79.7105 182.53 86.3705C182.59 91.8105 182.53 97.2505 182.53 102.56C192.53 107.22 192.53 107.22 199.88 99.8405C201.67 98.0505 203.38 96.1705 205.28 94.5205C209.45 90.8805 213.77 90.7905 217.78 94.5205C222.72 99.1705 227.5 103.99 232.17 108.9C236.09 113.03 236.04 117.49 232.17 121.66C228.82 125.25 225.31 128.72 221.74 132.1C220.24 133.52 220.37 134.65 220.85 136.57C222.46 143.06 226.13 145.57 232.77 144.42C235.946 144.06 239.153 144.06 242.33 144.42C247.13 144.71 250.33 147.76 250.48 152.56C250.7 159.74 250.7 166.92 250.48 174.1C250.32 179.49 246.85 182.48 240.96 182.64C236.31 182.77 231.65 182.78 226.96 182.64C224.74 182.57 223.96 183.54 222.86 185.36C219.3 191.08 220.6 195.18 225.81 198.94C228.204 200.852 230.384 203.018 232.31 205.4C235.92 209.48 235.99 213.93 232.31 217.9C227.643 222.84 222.846 227.634 217.92 232.281C213.69 236.281 209.15 236.071 204.84 231.971C201.38 228.671 198.17 225.08 194.59 221.97C193.59 221.13 191.64 220.97 190.23 221.2C183.49 222.29 181.42 226.48 182.46 232.98C182.795 236.025 182.795 239.096 182.46 242.14C182.13 247.35 178.95 250.55 173.75 250.68C166.836 250.847 159.92 250.847 153 250.68C147.65 250.55 144.43 247.25 144.24 241.8C144.07 237.01 144.09 232.22 144.24 227.43C144.31 225.14 143.45 224.21 141.42 222.99C135.65 219.51 131.56 220.85 127.8 225.99C125.886 228.383 123.72 230.562 121.34 232.49C117.47 235.93 112.95 236.11 109.16 232.59C104 227.79 98.9897 222.81 94.2097 217.64C90.5697 213.7 90.8296 209.24 94.6296 205.15C97.8896 201.65 101.3 198.28 104.79 195C106.35 193.52 106.43 192.35 105.87 190.22C104.2 183.9 100.65 181.44 94.1696 182.62C91.4696 183.11 88.5896 182.78 85.7996 182.68C79.4596 182.46 76.2696 179.29 76.1696 172.98C76.0696 166.67 76.0596 160.21 76.1696 153.82C76.2896 147.67 79.4696 144.52 85.5696 144.4C90.3596 144.3 95.1496 144.28 99.9396 144.4C102 144.46 102.94 143.73 103.66 141.78C106.66 133.92 106.76 133.95 100.77 127.96C98.6997 125.9 96.5597 123.89 94.5897 121.73C90.7197 117.5 90.5897 113.1 94.5197 108.97C99.0897 104.14 103.81 99.4505 108.62 94.8605C112.92 90.7505 117.35 90.7305 121.7 94.7605C125.21 98.0205 128.58 101.43 131.85 104.92C133.33 106.5 134.56 107.04 136.61 105.92C138.97 104.64 141.57 103.79 144.24 102.63ZM211.32 105.19C207.32 109.19 203.48 113.24 199.54 117.19C195.6 121.14 194.15 121.19 189.33 118.98C185.149 116.972 180.855 115.209 176.47 113.7C172.28 112.33 170.41 109.91 170.55 105.51C170.72 99.8305 170.55 94.1505 170.55 88.4005H156.22C156.22 94.4005 156.15 100.25 156.22 106.07C156.28 109.94 154.58 112.19 150.92 113.48C146.42 115.06 142.01 116.89 137.68 118.88C132.6 121.22 131.18 121.13 127.13 117.08C123.08 113.03 119.34 109.15 115.83 105.57L105.04 115.65C109.36 119.85 113.53 123.96 117.76 128C120.55 130.67 120.86 133.51 119.19 137C117.19 141.29 115.35 145.72 113.69 150.19C111.84 155.19 110.4 156.33 104.85 156.36C99.2997 156.39 94.0097 156.36 88.4597 156.36V170.73C94.4597 170.73 100.16 170.85 105.85 170.73C109.96 170.62 112.17 172.5 113.49 176.27C115.001 180.795 116.819 185.212 118.93 189.49C120.93 193.44 120.52 196.49 117.34 199.49C113.19 203.39 109.18 207.43 105.58 210.95L115.58 221.81C119.7 217.59 123.75 213.56 127.65 209.4C130.42 206.46 133.36 206.06 136.99 207.76C141.42 209.84 145.99 211.76 150.56 213.38C154.47 214.77 156.39 217.11 156.25 221.38C156.07 227.06 156.25 232.75 156.25 238.56H170.57C170.57 232.61 170.68 226.91 170.57 221.22C170.47 217.15 172.27 214.84 176.04 213.48C180.64 211.82 185.21 209.99 189.62 207.88C193.4 206.06 196.4 206.46 199.29 209.52C203.2 213.66 207.29 217.64 211.02 221.41L221.42 211.16C217.52 207.34 213.49 203.3 209.35 199.38C206.35 196.51 205.85 193.53 207.77 189.73C209.788 185.557 211.57 181.273 213.11 176.9C214.95 171.9 216.24 170.83 221.52 170.81C227.07 170.81 232.62 170.81 238.37 170.81V156.34C232.53 156.34 226.96 156.24 221.37 156.34C217 156.44 214.53 154.51 213.15 150.34C211.708 145.935 209.94 141.643 207.86 137.5C205.86 133.59 206.17 130.5 209.4 127.5C213.6 123.62 217.65 119.59 221.51 115.86L211.32 105.19Z" fill="#FFBF14"/>
<path d="M178.81 43.7103C192.488 45.3023 205.754 49.4079 217.94 55.8204C251.34 73.507 272.34 100.797 280.94 137.69C281.72 141.04 282.21 144.47 282.66 147.89C283.19 151.89 281.23 154.75 277.8 155.36C274.69 155.92 271.93 153.82 271.04 150.07C269.29 142.73 268.32 135.07 265.76 128.07C251.03 87.4504 222.01 63.6203 179.6 55.9003C178.6 55.7103 177.49 55.6104 176.47 55.3204C172.98 54.3204 170.91 51.6404 171.54 48.6704C172.28 45.1904 174.57 43.4903 178.81 43.7103Z" fill="#FFBF14"/>
<path d="M157.47 15.7901C157.47 12.6101 157.32 9.42012 157.47 6.25012C157.69 2.46012 160.12 0.0201225 163.33 0.000122524C166.54 -0.0198775 169.13 2.41013 169.24 6.19012C169.427 12.6835 169.427 19.1735 169.24 25.6601C169.12 29.4001 166.41 31.9701 163.24 31.6601C159.73 31.3401 157.68 29.2501 157.53 25.6601C157.38 22.3601 157.53 19.0401 157.53 15.7301L157.47 15.7901Z" fill="#FFBF14"/>
<path d="M15.6298 169.32C12.3198 169.32 8.9998 169.41 5.6898 169.32C4.95072 169.35 4.21331 169.229 3.52244 168.965C2.83157 168.7 2.20171 168.298 1.67124 167.783C1.14078 167.267 0.72078 166.649 0.436867 165.966C0.152954 165.283 0.0110654 164.549 0.0198137 163.81C-0.190186 160.51 1.68981 157.93 5.01981 157.81C12.1498 157.51 19.3098 157.5 26.4398 157.81C29.7598 157.94 31.5898 160.38 31.5598 163.81C31.5598 166.95 29.0998 169.24 25.5598 169.4C22.2498 169.54 18.9398 169.4 15.6198 169.4L15.6298 169.32Z" fill="#FFBF14"/>
<path d="M310.93 169.33C307.61 169.33 304.3 169.42 300.99 169.33C297.68 169.24 295.5 167.21 295.26 163.9C295.02 160.59 296.85 157.96 300.2 157.82C307.45 157.51 314.74 157.55 322 157.82C325.2 157.96 326.93 160.54 326.8 163.63C326.66 166.89 324.73 169.11 321.26 169.26C317.79 169.41 314.37 169.26 310.93 169.26V169.33Z" fill="#FFBF14"/>
<path d="M66.39 72.7298C64.23 71.4698 62.45 70.8198 61.18 69.6298C56.86 65.5298 52.6601 61.2898 48.5201 57.0098C45.4301 53.8098 45.29 50.4698 47.89 47.8898C50.49 45.3098 53.89 45.5898 57 48.6698C61.553 52.897 65.8918 57.3492 70 62.0098C71.29 63.5498 71.52 66.7298 71 68.8198C70.57 70.3598 68.12 71.3498 66.39 72.7298Z" fill="#FFBF14"/>
<path d="M260.021 72.3998C258.701 71.3998 256.391 70.3998 255.781 68.8198C255.101 67.0198 255.121 63.9199 256.251 62.6399C261.021 57.3158 266.058 52.236 271.341 47.4199C273.661 45.2799 276.591 45.6698 278.881 47.9098C281.021 49.9998 281.751 52.9099 279.711 55.0799C274.621 60.6199 269.161 65.8299 263.711 71.0799C263.081 71.7299 261.831 71.7898 260.021 72.3998Z" fill="#FFBF14"/>
<path d="M72.6198 260.48C71.4498 262.58 70.8899 264.29 69.7699 265.48C65.5799 269.9 61.2598 274.21 56.8698 278.48C53.6998 281.48 50.2398 281.62 47.7298 278.97C45.2198 276.32 45.4599 273.19 48.4099 270.14C52.7299 265.66 56.9899 261.08 61.7199 257.06C62.6936 256.388 63.7975 255.928 64.9602 255.709C66.1228 255.491 67.3185 255.518 68.4699 255.79C70.1299 256.19 71.2098 258.75 72.6198 260.48Z" fill="#FFBF14"/>
<path d="M260.48 254.19C262.58 255.47 264.35 256.19 265.63 257.38C269.95 261.49 274.16 265.72 278.3 270.01C281.38 273.2 281.52 276.59 278.9 279.13C276.28 281.67 273.09 281.48 270.05 278.56C265.464 274.328 261.095 269.865 256.96 265.19C256.279 264.213 255.809 263.105 255.58 261.936C255.351 260.766 255.368 259.563 255.63 258.4C256.08 256.73 258.68 255.63 260.48 254.19Z" fill="#FFBF14"/>
<path d="M163.35 131.51C169.682 131.498 175.874 133.365 181.145 136.874C186.415 140.383 190.526 145.376 192.957 151.222C195.388 157.068 196.03 163.505 194.803 169.716C193.575 175.927 190.532 181.635 186.059 186.116C181.586 190.597 175.884 193.651 169.675 194.89C163.466 196.13 157.029 195.5 151.178 193.08C145.327 190.659 140.326 186.558 136.807 181.294C133.288 176.031 131.41 169.841 131.41 163.51C131.41 155.033 134.773 146.903 140.761 140.904C146.75 134.904 154.874 131.526 163.35 131.51ZM143.35 163.4C143.342 166.026 143.85 168.629 144.848 171.058C145.845 173.488 147.311 175.698 149.162 177.561C151.013 179.424 153.213 180.905 155.636 181.918C158.06 182.931 160.659 183.456 163.285 183.465C165.912 183.473 168.514 182.964 170.944 181.967C173.374 180.97 175.583 179.504 177.446 177.653C179.309 175.802 180.79 173.602 181.803 171.179C182.816 168.755 183.342 166.156 183.35 163.53C183.367 158.225 181.277 153.132 177.538 149.369C173.8 145.606 168.719 143.482 163.415 143.465C158.111 143.448 153.017 145.538 149.254 149.277C145.491 153.015 143.367 158.095 143.35 163.4Z" fill="#FFBF14"/>
</g>
<defs>
<clipPath id="clip0_446_2399">
<rect width="326.8" height="408.73" fill="white"/>
</clipPath>
</defs>
</svg>
