<svg width="307" height="384" viewBox="0 0 307 384" fill="none" xmlns="http://www.w3.org/2000/svg">
<path d="M201.1 383.31C196.51 382.2 191.81 381.42 187.34 379.94C158.51 370.45 139.72 342.56 141.98 312.87C143.058 297.982 149.139 283.897 159.235 272.903C169.331 261.908 182.848 254.651 197.59 252.31L199.26 252.03C199.57 248.23 199.7 244.39 200.26 240.6C201.452 231.112 205.658 222.257 212.26 215.34C216.132 211.434 219.157 206.772 221.146 201.644C223.135 196.517 224.045 191.035 223.82 185.54C223.55 173.19 223.82 160.83 223.75 148.48C223.69 133.9 214.12 124.35 199.57 124.29C189.57 124.29 179.57 124.39 169.57 124.23C166.13 124.17 165.22 125.39 165.63 128.67C166.177 133.169 168.245 137.346 171.491 140.509C174.738 143.671 178.968 145.63 183.48 146.06C188.21 146.43 192.98 146.28 197.73 146.29C200.73 146.29 203.21 146.97 204.4 150.02C205.59 153.07 204.06 154.96 202.04 156.91C192.13 166.48 187.12 177.91 188.8 191.91C189.26 195.76 187.12 198.62 183.8 198.91C180.67 199.23 178.28 197.07 177.7 193.21C176 181.77 178.58 171.21 184.29 161.21L186.13 157.99C182.37 157.19 178.88 156.41 175.37 155.76C174.64 155.701 173.911 155.888 173.3 156.29C162.18 163.1 151.95 161.49 142.3 153.02C133.89 161.22 124.43 162.73 113.75 157.17C106.9 170.03 96.4896 173.89 82.6696 168.78C82.6696 180.6 82.3296 192.2 82.8096 203.78C83.0596 209.78 86.5796 214.62 91.6296 217.93C103 225.38 108.2 235.83 107.63 249.31C107.48 252.55 107.63 255.8 107.57 259.04C107.44 262.6 105.22 264.89 102.09 264.93C98.9596 264.97 96.5896 262.73 96.4196 259.17C96.2296 255.17 96.2896 251.17 96.3596 247.17C96.4996 238.89 93.1296 232.5 86.2496 227.88C75.9996 221 71.1696 211.38 71.2496 199.05C71.3496 168.85 71.7296 138.65 71.1096 108.47C70.7596 90.9696 88.5796 78.6896 105.02 88.1996C107.9 82.3596 112.02 77.7196 118.39 75.5096C124.76 73.2996 130.93 74.0796 137.08 77.4296C140.08 69.9296 144.91 64.3496 152.71 61.8296C160.51 59.3096 167.48 60.9396 174.32 65.3996C175.14 64.1996 175.87 63.0996 176.64 62.0296C179.479 58.0218 183.499 55.0004 188.139 53.387C192.778 51.7736 197.806 51.6486 202.52 53.0296C207.247 54.3557 211.427 57.16 214.446 61.0322C217.465 64.9044 219.166 69.6412 219.3 74.5496C219.54 88.0196 219.45 101.55 219.36 114.97C219.289 116.002 219.492 117.036 219.946 117.966C220.401 118.896 221.091 119.69 221.95 120.27C230.4 126.89 234.95 135.63 235.08 146.4C235.23 160 235.08 173.6 235.15 187.2C235.282 193.578 234.148 199.919 231.814 205.857C229.479 211.794 225.991 217.209 221.55 221.79C217.828 225.611 214.964 230.183 213.15 235.199C211.336 240.216 210.613 245.562 211.03 250.88C216.77 252.1 222.36 252.88 227.68 254.49C270.58 267.73 287.85 319.3 261.68 355.7C261.048 356.629 260.35 357.512 259.59 358.34C259.157 358.904 258.618 359.378 258.002 359.733C257.386 360.089 256.707 360.32 256.002 360.413C255.297 360.506 254.581 360.459 253.894 360.275C253.207 360.09 252.563 359.773 252 359.34C249.52 357.74 249 354.48 250.67 351.7C252.8 348.19 255.46 344.93 257.12 341.21C266.63 320.01 264.53 299.82 249.41 282.14C234.29 264.46 214.77 258.65 192.56 265.19C170.35 271.73 157.11 287.19 153.8 310.04C150.8 331.04 158.31 348.54 175.28 361.17C192.25 373.8 211.28 375.51 230.91 367.03C231.71 366.69 232.49 366.28 233.3 365.97C236.37 364.79 239.3 365.8 240.67 368.45C241.362 369.648 241.549 371.073 241.191 372.41C240.833 373.747 239.958 374.887 238.76 375.58C238.516 375.72 238.262 375.84 238 375.94C231.38 378.44 224.56 380.4 217.81 382.56C216.81 382.9 215.66 383.08 214.58 383.34L201.1 383.31ZM103.6 128.25C103.6 121.25 103.66 114.25 103.6 107.25C103.53 100.72 99.0296 96.0796 93.0296 96.0996C87.0296 96.1196 82.5496 100.72 82.5096 107.32C82.4296 121.04 82.4296 134.763 82.5096 148.49C82.5096 155.15 86.8496 159.72 92.9096 159.83C98.9696 159.94 103.6 155.2 103.66 148.42C103.72 141.64 103.6 134.99 103.6 128.25ZM114.86 117.16V137.37C114.86 144.51 119.2 149.26 125.52 149.27C131.84 149.28 136.08 144.76 136.14 137.76C136.26 124.16 136.26 110.563 136.14 96.9696C136.08 90.1396 131.41 85.4196 125.36 85.5596C119.31 85.6996 114.93 90.4496 114.88 97.3096C114.82 103.93 114.86 110.54 114.86 117.16ZM171.95 113.07C171.95 102.62 172.16 92.6596 171.86 82.7196C171.71 77.7896 168.54 74.4396 163.97 72.7196C155.55 69.5796 147.54 75.7196 147.48 85.3496C147.39 102.19 147.48 119.02 147.48 135.86C147.469 137.104 147.58 138.347 147.81 139.57C148.362 142.593 150.092 145.274 152.619 147.024C155.147 148.773 158.265 149.448 161.29 148.9C161.88 148.791 162.462 148.637 163.03 148.44C156.03 137.79 155.03 135.58 154.43 129.02C153.53 119.02 158.82 113.21 169 113.02L171.95 113.07ZM207.78 113.17C207.901 112.722 207.978 112.263 208.01 111.8V75.5396C207.998 73.7579 207.596 72.0004 206.832 70.3906C206.069 68.7808 204.962 67.3578 203.589 66.2216C202.217 65.0855 200.612 64.2638 198.888 63.8142C197.164 63.3647 195.362 63.2983 193.61 63.6196C187.88 64.4896 183.61 69.3196 183.46 75.7496C183.25 82.5996 183.4 89.4596 183.39 96.3096V113.17H207.78Z" fill="#FFBF14"/>
<path d="M99.8101 383.31C96.8101 381.31 96.2101 378.31 96.2201 374.89C96.3001 345.89 96.2201 316.81 96.2201 287.76C96.1813 286.394 96.2987 285.029 96.5701 283.69C96.8784 282.443 97.6141 281.344 98.6492 280.583C99.6842 279.823 100.953 279.449 102.235 279.528C103.517 279.606 104.731 280.132 105.666 281.013C106.6 281.894 107.196 283.075 107.35 284.35C107.452 285.347 107.488 286.349 107.46 287.35V375.61C107.46 379.05 106.65 381.71 103.46 383.33L99.8101 383.31Z" fill="#FFBF14"/>
<path d="M199.55 330.51C206.43 321.51 213 312.92 219.55 304.32C222.66 300.26 225.71 296.15 228.88 292.14C231.39 288.95 234.66 288.39 237.33 290.53C239.84 292.53 240.16 295.79 237.83 298.85C226.676 313.564 215.48 328.23 204.24 342.85C201.38 346.55 197.35 346.46 194.53 342.67C188.87 335.07 183.3 327.404 177.82 319.67C175.56 316.49 175.97 313.4 178.63 311.41C181.29 309.42 184.63 310.09 187.03 313.32C191.13 318.84 195.12 324.42 199.55 330.51Z" fill="#FFBF14"/>
<path d="M158.69 16.6203C158.69 19.9903 158.8 23.3503 158.69 26.7103C158.54 30.4403 156.14 32.8803 152.98 32.8003C149.82 32.7203 147.61 30.3803 147.55 26.8003C147.42 19.8003 147.41 12.8003 147.55 5.8703C147.62 2.3103 149.94 0.0303016 153.03 0.000301601C156.12 -0.0296984 158.48 2.1803 158.65 5.7603C158.82 9.3403 158.65 12.9903 158.65 16.6003L158.69 16.6203Z" fill="#FFBF14"/>
<path d="M24.7297 232.79C23.1497 231.28 20.7297 230.01 20.2197 228.18C19.7097 226.35 20.5097 223.24 21.8397 222.37C28.2997 218.13 35.0397 214.29 41.8397 210.66C44.3697 209.31 47.0597 210.21 48.6697 212.81C50.2797 215.41 50.0297 218.3 47.5797 219.81C40.8297 224.06 33.7997 227.86 26.8597 231.81C26.3911 231.98 25.8979 232.071 25.3997 232.08L24.7297 232.79Z" fill="#FFBF14"/>
<path d="M217.17 49.5001C212 49.5801 209.06 45.5001 211.05 41.7301C214.58 35.0101 218.45 28.4501 222.49 22.0201C224.16 19.3601 227.08 19.0201 229.78 20.6501C232.27 22.2001 233.42 24.7201 231.95 27.4201C228.323 34.0868 224.52 40.6634 220.54 47.1501C219.75 48.4401 217.85 49.0501 217.17 49.5001Z" fill="#FFBF14"/>
<path d="M286.54 225.71C286.43 230.51 282.31 233.39 278.79 231.54C272.05 228.02 265.47 224.17 258.98 220.2C256.29 218.56 255.78 215.76 257.37 212.98C258.96 210.2 261.78 209.29 264.47 210.73C271.19 214.3 277.76 218.17 284.22 222.18C285.5 222.97 286.03 224.93 286.54 225.71Z" fill="#FFBF14"/>
<path d="M80.3901 19.7305C81.2601 20.4305 83.3001 21.3905 84.3101 22.9905C87.9501 28.7905 91.3101 34.7705 94.6501 40.7605C96.5001 44.0805 95.6501 47.2905 92.8201 48.8605C89.9901 50.4305 86.9101 49.5605 85.1001 46.5305C81.5001 40.5305 77.9701 34.5305 74.6101 28.4105C72.3401 24.3105 74.8701 19.7805 80.3901 19.7305Z" fill="#FFBF14"/>
<path d="M44.67 96.1796C43.1899 95.6512 41.738 95.0471 40.32 94.3696C34.68 91.1596 29.03 87.9396 23.45 84.6496C19.81 82.4996 18.74 79.5696 20.36 76.6496C21.98 73.7296 25.36 72.9096 29.1 75.0196C34.9734 78.3529 40.81 81.7262 46.61 85.1396C49.17 86.6496 50.47 89.1396 49.17 91.7996C48.26 93.6096 46.09 94.8496 44.67 96.1796Z" fill="#FFBF14"/>
<path d="M286.56 80.2395C285.88 81.1095 284.95 83.1695 283.35 84.1795C277.43 87.8895 271.35 91.3195 265.22 94.6995C262.08 96.4295 259.02 95.5596 257.39 92.8596C255.76 90.1596 256.5 86.9195 259.83 84.9295C265.72 81.4195 271.66 77.9295 277.68 74.6695C281.87 72.3695 286.36 74.7095 286.56 80.2395Z" fill="#FFBF14"/>
<path d="M16.5495 147.36C20.0495 147.36 23.5495 147.27 27.0395 147.36C30.5295 147.45 32.5795 149.62 32.6995 152.63C32.7985 154.056 32.3274 155.462 31.3898 156.54C30.4522 157.619 29.1249 158.28 27.6995 158.38H27.4895C20.0029 158.607 12.5129 158.607 5.01953 158.38C1.72953 158.27 -0.190473 155.61 0.0195267 152.54C0.229527 149.47 2.30952 147.47 5.73952 147.37C9.16952 147.27 12.9295 147.36 16.5495 147.36Z" fill="#FFBF14"/>
<path d="M289.69 158.56C286.32 158.56 282.95 158.67 279.58 158.56C275.81 158.4 273.41 156.05 273.44 152.85C273.47 149.65 275.85 147.43 279.7 147.39C286.44 147.33 293.183 147.33 299.93 147.39C303.93 147.39 306.13 149.45 306.19 152.79C306.25 156.13 304.01 158.39 300.19 158.55C296.69 158.68 293.19 158.56 289.69 158.56Z" fill="#FFBF14"/>
</svg>
